%TF.GenerationSoftware,KiCad,Pcbnew,9.0.5*%
%TF.CreationDate,2025-11-27T21:34:18+09:00*%
%TF.ProjectId,ltc6820,6c746336-3832-4302-9e6b-696361645f70,rev?*%
%TF.SameCoordinates,Original*%
%TF.FileFunction,Legend,Top*%
%TF.FilePolarity,Positive*%
%FSLAX46Y46*%
G04 Gerber Fmt 4.6, Leading zero omitted, Abs format (unit mm)*
G04 Created by KiCad (PCBNEW 9.0.5) date 2025-11-27 21:34:18*
%MOMM*%
%LPD*%
G01*
G04 APERTURE LIST*
G04 Aperture macros list*
%AMRoundRect*
0 Rectangle with rounded corners*
0 $1 Rounding radius*
0 $2 $3 $4 $5 $6 $7 $8 $9 X,Y pos of 4 corners*
0 Add a 4 corners polygon primitive as box body*
4,1,4,$2,$3,$4,$5,$6,$7,$8,$9,$2,$3,0*
0 Add four circle primitives for the rounded corners*
1,1,$1+$1,$2,$3*
1,1,$1+$1,$4,$5*
1,1,$1+$1,$6,$7*
1,1,$1+$1,$8,$9*
0 Add four rect primitives between the rounded corners*
20,1,$1+$1,$2,$3,$4,$5,0*
20,1,$1+$1,$4,$5,$6,$7,0*
20,1,$1+$1,$6,$7,$8,$9,0*
20,1,$1+$1,$8,$9,$2,$3,0*%
%AMFreePoly0*
4,1,23,0.500000,-0.750000,0.000000,-0.750000,0.000000,-0.745722,-0.065263,-0.745722,-0.191342,-0.711940,-0.304381,-0.646677,-0.396677,-0.554381,-0.461940,-0.441342,-0.495722,-0.315263,-0.495722,-0.250000,-0.500000,-0.250000,-0.500000,0.250000,-0.495722,0.250000,-0.495722,0.315263,-0.461940,0.441342,-0.396677,0.554381,-0.304381,0.646677,-0.191342,0.711940,-0.065263,0.745722,0.000000,0.745722,
0.000000,0.750000,0.500000,0.750000,0.500000,-0.750000,0.500000,-0.750000,$1*%
%AMFreePoly1*
4,1,23,0.000000,0.745722,0.065263,0.745722,0.191342,0.711940,0.304381,0.646677,0.396677,0.554381,0.461940,0.441342,0.495722,0.315263,0.495722,0.250000,0.500000,0.250000,0.500000,-0.250000,0.495722,-0.250000,0.495722,-0.315263,0.461940,-0.441342,0.396677,-0.554381,0.304381,-0.646677,0.191342,-0.711940,0.065263,-0.745722,0.000000,-0.745722,0.000000,-0.750000,-0.500000,-0.750000,
-0.500000,0.750000,0.000000,0.750000,0.000000,0.745722,0.000000,0.745722,$1*%
G04 Aperture macros list end*
%ADD10C,0.100000*%
%ADD11C,0.150000*%
%ADD12C,0.254000*%
%ADD13C,0.120000*%
%ADD14C,1.404000*%
%ADD15RoundRect,0.200000X-0.275000X0.200000X-0.275000X-0.200000X0.275000X-0.200000X0.275000X0.200000X0*%
%ADD16FreePoly0,0.000000*%
%ADD17FreePoly1,0.000000*%
%ADD18FreePoly0,180.000000*%
%ADD19FreePoly1,180.000000*%
%ADD20RoundRect,0.225000X-0.250000X0.225000X-0.250000X-0.225000X0.250000X-0.225000X0.250000X0.225000X0*%
%ADD21RoundRect,0.225000X0.250000X-0.225000X0.250000X0.225000X-0.250000X0.225000X-0.250000X-0.225000X0*%
%ADD22C,1.600000*%
%ADD23R,1.700000X1.700000*%
%ADD24C,1.700000*%
%ADD25RoundRect,0.075000X-0.650000X-0.075000X0.650000X-0.075000X0.650000X0.075000X-0.650000X0.075000X0*%
G04 APERTURE END LIST*
D10*
X82737609Y-61537163D02*
X82237609Y-61537163D01*
X82237609Y-61537163D02*
X82594752Y-61370496D01*
X82594752Y-61370496D02*
X82237609Y-61203830D01*
X82237609Y-61203830D02*
X82737609Y-61203830D01*
X82737609Y-60751448D02*
X82475704Y-60751448D01*
X82475704Y-60751448D02*
X82428085Y-60775258D01*
X82428085Y-60775258D02*
X82404276Y-60822877D01*
X82404276Y-60822877D02*
X82404276Y-60918115D01*
X82404276Y-60918115D02*
X82428085Y-60965734D01*
X82713800Y-60751448D02*
X82737609Y-60799067D01*
X82737609Y-60799067D02*
X82737609Y-60918115D01*
X82737609Y-60918115D02*
X82713800Y-60965734D01*
X82713800Y-60965734D02*
X82666180Y-60989543D01*
X82666180Y-60989543D02*
X82618561Y-60989543D01*
X82618561Y-60989543D02*
X82570942Y-60965734D01*
X82570942Y-60965734D02*
X82547133Y-60918115D01*
X82547133Y-60918115D02*
X82547133Y-60799067D01*
X82547133Y-60799067D02*
X82523323Y-60751448D01*
X82713800Y-60537162D02*
X82737609Y-60489543D01*
X82737609Y-60489543D02*
X82737609Y-60394305D01*
X82737609Y-60394305D02*
X82713800Y-60346686D01*
X82713800Y-60346686D02*
X82666180Y-60322877D01*
X82666180Y-60322877D02*
X82642371Y-60322877D01*
X82642371Y-60322877D02*
X82594752Y-60346686D01*
X82594752Y-60346686D02*
X82570942Y-60394305D01*
X82570942Y-60394305D02*
X82570942Y-60465734D01*
X82570942Y-60465734D02*
X82547133Y-60513353D01*
X82547133Y-60513353D02*
X82499514Y-60537162D01*
X82499514Y-60537162D02*
X82475704Y-60537162D01*
X82475704Y-60537162D02*
X82428085Y-60513353D01*
X82428085Y-60513353D02*
X82404276Y-60465734D01*
X82404276Y-60465734D02*
X82404276Y-60394305D01*
X82404276Y-60394305D02*
X82428085Y-60346686D01*
X82404276Y-60180019D02*
X82404276Y-59989543D01*
X82237609Y-60108591D02*
X82666180Y-60108591D01*
X82666180Y-60108591D02*
X82713800Y-60084781D01*
X82713800Y-60084781D02*
X82737609Y-60037162D01*
X82737609Y-60037162D02*
X82737609Y-59989543D01*
X82713800Y-59632401D02*
X82737609Y-59680020D01*
X82737609Y-59680020D02*
X82737609Y-59775258D01*
X82737609Y-59775258D02*
X82713800Y-59822877D01*
X82713800Y-59822877D02*
X82666180Y-59846686D01*
X82666180Y-59846686D02*
X82475704Y-59846686D01*
X82475704Y-59846686D02*
X82428085Y-59822877D01*
X82428085Y-59822877D02*
X82404276Y-59775258D01*
X82404276Y-59775258D02*
X82404276Y-59680020D01*
X82404276Y-59680020D02*
X82428085Y-59632401D01*
X82428085Y-59632401D02*
X82475704Y-59608591D01*
X82475704Y-59608591D02*
X82523323Y-59608591D01*
X82523323Y-59608591D02*
X82570942Y-59846686D01*
X82737609Y-59394306D02*
X82404276Y-59394306D01*
X82499514Y-59394306D02*
X82451895Y-59370496D01*
X82451895Y-59370496D02*
X82428085Y-59346687D01*
X82428085Y-59346687D02*
X82404276Y-59299068D01*
X82404276Y-59299068D02*
X82404276Y-59251449D01*
X82713800Y-58727639D02*
X82737609Y-58656211D01*
X82737609Y-58656211D02*
X82737609Y-58537163D01*
X82737609Y-58537163D02*
X82713800Y-58489544D01*
X82713800Y-58489544D02*
X82689990Y-58465735D01*
X82689990Y-58465735D02*
X82642371Y-58441925D01*
X82642371Y-58441925D02*
X82594752Y-58441925D01*
X82594752Y-58441925D02*
X82547133Y-58465735D01*
X82547133Y-58465735D02*
X82523323Y-58489544D01*
X82523323Y-58489544D02*
X82499514Y-58537163D01*
X82499514Y-58537163D02*
X82475704Y-58632401D01*
X82475704Y-58632401D02*
X82451895Y-58680020D01*
X82451895Y-58680020D02*
X82428085Y-58703830D01*
X82428085Y-58703830D02*
X82380466Y-58727639D01*
X82380466Y-58727639D02*
X82332847Y-58727639D01*
X82332847Y-58727639D02*
X82285228Y-58703830D01*
X82285228Y-58703830D02*
X82261419Y-58680020D01*
X82261419Y-58680020D02*
X82237609Y-58632401D01*
X82237609Y-58632401D02*
X82237609Y-58513354D01*
X82237609Y-58513354D02*
X82261419Y-58441925D01*
X82737609Y-58156211D02*
X82713800Y-58203830D01*
X82713800Y-58203830D02*
X82666180Y-58227640D01*
X82666180Y-58227640D02*
X82237609Y-58227640D01*
X82737609Y-57751449D02*
X82475704Y-57751449D01*
X82475704Y-57751449D02*
X82428085Y-57775259D01*
X82428085Y-57775259D02*
X82404276Y-57822878D01*
X82404276Y-57822878D02*
X82404276Y-57918116D01*
X82404276Y-57918116D02*
X82428085Y-57965735D01*
X82713800Y-57751449D02*
X82737609Y-57799068D01*
X82737609Y-57799068D02*
X82737609Y-57918116D01*
X82737609Y-57918116D02*
X82713800Y-57965735D01*
X82713800Y-57965735D02*
X82666180Y-57989544D01*
X82666180Y-57989544D02*
X82618561Y-57989544D01*
X82618561Y-57989544D02*
X82570942Y-57965735D01*
X82570942Y-57965735D02*
X82547133Y-57918116D01*
X82547133Y-57918116D02*
X82547133Y-57799068D01*
X82547133Y-57799068D02*
X82523323Y-57751449D01*
X82404276Y-57560973D02*
X82737609Y-57441925D01*
X82737609Y-57441925D02*
X82404276Y-57322878D01*
X82713800Y-56941926D02*
X82737609Y-56989545D01*
X82737609Y-56989545D02*
X82737609Y-57084783D01*
X82737609Y-57084783D02*
X82713800Y-57132402D01*
X82713800Y-57132402D02*
X82666180Y-57156211D01*
X82666180Y-57156211D02*
X82475704Y-57156211D01*
X82475704Y-57156211D02*
X82428085Y-57132402D01*
X82428085Y-57132402D02*
X82404276Y-57084783D01*
X82404276Y-57084783D02*
X82404276Y-56989545D01*
X82404276Y-56989545D02*
X82428085Y-56941926D01*
X82428085Y-56941926D02*
X82475704Y-56918116D01*
X82475704Y-56918116D02*
X82523323Y-56918116D01*
X82523323Y-56918116D02*
X82570942Y-57156211D01*
D11*
X77854180Y-57415350D02*
X78854180Y-57415350D01*
X78854180Y-57415350D02*
X78139895Y-57648684D01*
X78139895Y-57648684D02*
X78854180Y-57882017D01*
X78854180Y-57882017D02*
X77854180Y-57882017D01*
X78854180Y-58348684D02*
X78854180Y-58482017D01*
X78854180Y-58482017D02*
X78806561Y-58548684D01*
X78806561Y-58548684D02*
X78711323Y-58615350D01*
X78711323Y-58615350D02*
X78520847Y-58648684D01*
X78520847Y-58648684D02*
X78187514Y-58648684D01*
X78187514Y-58648684D02*
X77997038Y-58615350D01*
X77997038Y-58615350D02*
X77901800Y-58548684D01*
X77901800Y-58548684D02*
X77854180Y-58482017D01*
X77854180Y-58482017D02*
X77854180Y-58348684D01*
X77854180Y-58348684D02*
X77901800Y-58282017D01*
X77901800Y-58282017D02*
X77997038Y-58215350D01*
X77997038Y-58215350D02*
X78187514Y-58182017D01*
X78187514Y-58182017D02*
X78520847Y-58182017D01*
X78520847Y-58182017D02*
X78711323Y-58215350D01*
X78711323Y-58215350D02*
X78806561Y-58282017D01*
X78806561Y-58282017D02*
X78854180Y-58348684D01*
X77901800Y-58915350D02*
X77854180Y-59015350D01*
X77854180Y-59015350D02*
X77854180Y-59182017D01*
X77854180Y-59182017D02*
X77901800Y-59248683D01*
X77901800Y-59248683D02*
X77949419Y-59282017D01*
X77949419Y-59282017D02*
X78044657Y-59315350D01*
X78044657Y-59315350D02*
X78139895Y-59315350D01*
X78139895Y-59315350D02*
X78235133Y-59282017D01*
X78235133Y-59282017D02*
X78282752Y-59248683D01*
X78282752Y-59248683D02*
X78330371Y-59182017D01*
X78330371Y-59182017D02*
X78377990Y-59048683D01*
X78377990Y-59048683D02*
X78425609Y-58982017D01*
X78425609Y-58982017D02*
X78473228Y-58948683D01*
X78473228Y-58948683D02*
X78568466Y-58915350D01*
X78568466Y-58915350D02*
X78663704Y-58915350D01*
X78663704Y-58915350D02*
X78758942Y-58948683D01*
X78758942Y-58948683D02*
X78806561Y-58982017D01*
X78806561Y-58982017D02*
X78854180Y-59048683D01*
X78854180Y-59048683D02*
X78854180Y-59215350D01*
X78854180Y-59215350D02*
X78806561Y-59315350D01*
X77854180Y-59615350D02*
X78854180Y-59615350D01*
X77854180Y-60482016D02*
X78854180Y-60482016D01*
X78854180Y-60482016D02*
X78139895Y-60715350D01*
X78139895Y-60715350D02*
X78854180Y-60948683D01*
X78854180Y-60948683D02*
X77854180Y-60948683D01*
X77854180Y-61282016D02*
X78854180Y-61282016D01*
X77901800Y-61582016D02*
X77854180Y-61682016D01*
X77854180Y-61682016D02*
X77854180Y-61848683D01*
X77854180Y-61848683D02*
X77901800Y-61915349D01*
X77901800Y-61915349D02*
X77949419Y-61948683D01*
X77949419Y-61948683D02*
X78044657Y-61982016D01*
X78044657Y-61982016D02*
X78139895Y-61982016D01*
X78139895Y-61982016D02*
X78235133Y-61948683D01*
X78235133Y-61948683D02*
X78282752Y-61915349D01*
X78282752Y-61915349D02*
X78330371Y-61848683D01*
X78330371Y-61848683D02*
X78377990Y-61715349D01*
X78377990Y-61715349D02*
X78425609Y-61648683D01*
X78425609Y-61648683D02*
X78473228Y-61615349D01*
X78473228Y-61615349D02*
X78568466Y-61582016D01*
X78568466Y-61582016D02*
X78663704Y-61582016D01*
X78663704Y-61582016D02*
X78758942Y-61615349D01*
X78758942Y-61615349D02*
X78806561Y-61648683D01*
X78806561Y-61648683D02*
X78854180Y-61715349D01*
X78854180Y-61715349D02*
X78854180Y-61882016D01*
X78854180Y-61882016D02*
X78806561Y-61982016D01*
X78854180Y-62415350D02*
X78854180Y-62548683D01*
X78854180Y-62548683D02*
X78806561Y-62615350D01*
X78806561Y-62615350D02*
X78711323Y-62682016D01*
X78711323Y-62682016D02*
X78520847Y-62715350D01*
X78520847Y-62715350D02*
X78187514Y-62715350D01*
X78187514Y-62715350D02*
X77997038Y-62682016D01*
X77997038Y-62682016D02*
X77901800Y-62615350D01*
X77901800Y-62615350D02*
X77854180Y-62548683D01*
X77854180Y-62548683D02*
X77854180Y-62415350D01*
X77854180Y-62415350D02*
X77901800Y-62348683D01*
X77901800Y-62348683D02*
X77997038Y-62282016D01*
X77997038Y-62282016D02*
X78187514Y-62248683D01*
X78187514Y-62248683D02*
X78520847Y-62248683D01*
X78520847Y-62248683D02*
X78711323Y-62282016D01*
X78711323Y-62282016D02*
X78806561Y-62348683D01*
X78806561Y-62348683D02*
X78854180Y-62415350D01*
X77901800Y-63515349D02*
X77854180Y-63615349D01*
X77854180Y-63615349D02*
X77854180Y-63782016D01*
X77854180Y-63782016D02*
X77901800Y-63848682D01*
X77901800Y-63848682D02*
X77949419Y-63882016D01*
X77949419Y-63882016D02*
X78044657Y-63915349D01*
X78044657Y-63915349D02*
X78139895Y-63915349D01*
X78139895Y-63915349D02*
X78235133Y-63882016D01*
X78235133Y-63882016D02*
X78282752Y-63848682D01*
X78282752Y-63848682D02*
X78330371Y-63782016D01*
X78330371Y-63782016D02*
X78377990Y-63648682D01*
X78377990Y-63648682D02*
X78425609Y-63582016D01*
X78425609Y-63582016D02*
X78473228Y-63548682D01*
X78473228Y-63548682D02*
X78568466Y-63515349D01*
X78568466Y-63515349D02*
X78663704Y-63515349D01*
X78663704Y-63515349D02*
X78758942Y-63548682D01*
X78758942Y-63548682D02*
X78806561Y-63582016D01*
X78806561Y-63582016D02*
X78854180Y-63648682D01*
X78854180Y-63648682D02*
X78854180Y-63815349D01*
X78854180Y-63815349D02*
X78806561Y-63915349D01*
X77949419Y-64615349D02*
X77901800Y-64582016D01*
X77901800Y-64582016D02*
X77854180Y-64482016D01*
X77854180Y-64482016D02*
X77854180Y-64415349D01*
X77854180Y-64415349D02*
X77901800Y-64315349D01*
X77901800Y-64315349D02*
X77997038Y-64248683D01*
X77997038Y-64248683D02*
X78092276Y-64215349D01*
X78092276Y-64215349D02*
X78282752Y-64182016D01*
X78282752Y-64182016D02*
X78425609Y-64182016D01*
X78425609Y-64182016D02*
X78616085Y-64215349D01*
X78616085Y-64215349D02*
X78711323Y-64248683D01*
X78711323Y-64248683D02*
X78806561Y-64315349D01*
X78806561Y-64315349D02*
X78854180Y-64415349D01*
X78854180Y-64415349D02*
X78854180Y-64482016D01*
X78854180Y-64482016D02*
X78806561Y-64582016D01*
X78806561Y-64582016D02*
X78758942Y-64615349D01*
X77854180Y-64915349D02*
X78854180Y-64915349D01*
X77854180Y-65315349D02*
X78425609Y-65015349D01*
X78854180Y-65315349D02*
X78282752Y-64915349D01*
X77949419Y-66548682D02*
X77901800Y-66515349D01*
X77901800Y-66515349D02*
X77854180Y-66415349D01*
X77854180Y-66415349D02*
X77854180Y-66348682D01*
X77854180Y-66348682D02*
X77901800Y-66248682D01*
X77901800Y-66248682D02*
X77997038Y-66182016D01*
X77997038Y-66182016D02*
X78092276Y-66148682D01*
X78092276Y-66148682D02*
X78282752Y-66115349D01*
X78282752Y-66115349D02*
X78425609Y-66115349D01*
X78425609Y-66115349D02*
X78616085Y-66148682D01*
X78616085Y-66148682D02*
X78711323Y-66182016D01*
X78711323Y-66182016D02*
X78806561Y-66248682D01*
X78806561Y-66248682D02*
X78854180Y-66348682D01*
X78854180Y-66348682D02*
X78854180Y-66415349D01*
X78854180Y-66415349D02*
X78806561Y-66515349D01*
X78806561Y-66515349D02*
X78758942Y-66548682D01*
X77901800Y-66815349D02*
X77854180Y-66915349D01*
X77854180Y-66915349D02*
X77854180Y-67082016D01*
X77854180Y-67082016D02*
X77901800Y-67148682D01*
X77901800Y-67148682D02*
X77949419Y-67182016D01*
X77949419Y-67182016D02*
X78044657Y-67215349D01*
X78044657Y-67215349D02*
X78139895Y-67215349D01*
X78139895Y-67215349D02*
X78235133Y-67182016D01*
X78235133Y-67182016D02*
X78282752Y-67148682D01*
X78282752Y-67148682D02*
X78330371Y-67082016D01*
X78330371Y-67082016D02*
X78377990Y-66948682D01*
X78377990Y-66948682D02*
X78425609Y-66882016D01*
X78425609Y-66882016D02*
X78473228Y-66848682D01*
X78473228Y-66848682D02*
X78568466Y-66815349D01*
X78568466Y-66815349D02*
X78663704Y-66815349D01*
X78663704Y-66815349D02*
X78758942Y-66848682D01*
X78758942Y-66848682D02*
X78806561Y-66882016D01*
X78806561Y-66882016D02*
X78854180Y-66948682D01*
X78854180Y-66948682D02*
X78854180Y-67115349D01*
X78854180Y-67115349D02*
X78806561Y-67215349D01*
X78854180Y-67948682D02*
X77854180Y-68182016D01*
X77854180Y-68182016D02*
X78854180Y-68415349D01*
X77854180Y-68648682D02*
X78854180Y-68648682D01*
X77854180Y-68982015D02*
X78854180Y-68982015D01*
X78854180Y-68982015D02*
X77854180Y-69382015D01*
X77854180Y-69382015D02*
X78854180Y-69382015D01*
X78806561Y-70615348D02*
X78854180Y-70548681D01*
X78854180Y-70548681D02*
X78854180Y-70448681D01*
X78854180Y-70448681D02*
X78806561Y-70348681D01*
X78806561Y-70348681D02*
X78711323Y-70282015D01*
X78711323Y-70282015D02*
X78616085Y-70248681D01*
X78616085Y-70248681D02*
X78425609Y-70215348D01*
X78425609Y-70215348D02*
X78282752Y-70215348D01*
X78282752Y-70215348D02*
X78092276Y-70248681D01*
X78092276Y-70248681D02*
X77997038Y-70282015D01*
X77997038Y-70282015D02*
X77901800Y-70348681D01*
X77901800Y-70348681D02*
X77854180Y-70448681D01*
X77854180Y-70448681D02*
X77854180Y-70515348D01*
X77854180Y-70515348D02*
X77901800Y-70615348D01*
X77901800Y-70615348D02*
X77949419Y-70648681D01*
X77949419Y-70648681D02*
X78282752Y-70648681D01*
X78282752Y-70648681D02*
X78282752Y-70515348D01*
X77854180Y-70948681D02*
X78854180Y-70948681D01*
X78854180Y-70948681D02*
X77854180Y-71348681D01*
X77854180Y-71348681D02*
X78854180Y-71348681D01*
X77854180Y-71682014D02*
X78854180Y-71682014D01*
X78854180Y-71682014D02*
X78854180Y-71848681D01*
X78854180Y-71848681D02*
X78806561Y-71948681D01*
X78806561Y-71948681D02*
X78711323Y-72015348D01*
X78711323Y-72015348D02*
X78616085Y-72048681D01*
X78616085Y-72048681D02*
X78425609Y-72082014D01*
X78425609Y-72082014D02*
X78282752Y-72082014D01*
X78282752Y-72082014D02*
X78092276Y-72048681D01*
X78092276Y-72048681D02*
X77997038Y-72015348D01*
X77997038Y-72015348D02*
X77901800Y-71948681D01*
X77901800Y-71948681D02*
X77854180Y-71848681D01*
X77854180Y-71848681D02*
X77854180Y-71682014D01*
X92205133Y-70186779D02*
X92205133Y-70948684D01*
X91824180Y-70567731D02*
X92586085Y-70567731D01*
X92205133Y-72948684D02*
X92205133Y-73710589D01*
D10*
X83276169Y-73201371D02*
X83733312Y-73125180D01*
X83466646Y-72972800D02*
X83695217Y-73468038D01*
X83695217Y-73468038D02*
X83542836Y-73429942D01*
X83352360Y-73468038D02*
X83352360Y-73620419D01*
X83352360Y-73620419D02*
X83428550Y-73734704D01*
X83428550Y-73734704D02*
X83619027Y-73772800D01*
X84114264Y-73201371D02*
X84571407Y-73125180D01*
X84304741Y-72972800D02*
X84533312Y-73468038D01*
X84533312Y-73468038D02*
X84380931Y-73429942D01*
X84190455Y-73468038D02*
X84190455Y-73620419D01*
X84190455Y-73620419D02*
X84266645Y-73734704D01*
X84266645Y-73734704D02*
X84457122Y-73772800D01*
X85333312Y-73163276D02*
X85409502Y-73315657D01*
X85409502Y-73315657D02*
X85447598Y-73506133D01*
X84952359Y-73087085D02*
X84952359Y-73353752D01*
X84952359Y-73353752D02*
X84990455Y-73544228D01*
X84990455Y-73544228D02*
X85066645Y-73772800D01*
X85066645Y-73772800D02*
X85180931Y-73544228D01*
X85790454Y-73125180D02*
X86019026Y-73125180D01*
X85942835Y-72934704D02*
X85790454Y-73582323D01*
X86209502Y-73087085D02*
X86323788Y-73239466D01*
X86133312Y-73239466D02*
X86133312Y-73696609D01*
X86133312Y-73696609D02*
X86057121Y-73734704D01*
X86057121Y-73734704D02*
X85942835Y-73696609D01*
X85942835Y-73696609D02*
X85942835Y-73544228D01*
X85942835Y-73544228D02*
X86057121Y-73506133D01*
X86057121Y-73506133D02*
X86285693Y-73696609D01*
X86552359Y-73125180D02*
X86895216Y-73125180D01*
X86590454Y-73810895D02*
X86742835Y-73810895D01*
X86742835Y-72896609D02*
X86742835Y-73810895D01*
X86895216Y-73772800D02*
X87314264Y-73772800D01*
X86895216Y-73353752D02*
X86552359Y-73468038D01*
X86971407Y-73277561D02*
X87504740Y-73277561D01*
X86971407Y-73010895D02*
X86971407Y-73620419D01*
X87238073Y-73582323D02*
X86857121Y-73620419D01*
X87428549Y-72934704D02*
X87047597Y-73010895D01*
X87542835Y-73620419D02*
X87504740Y-73810895D01*
X87504740Y-73810895D02*
X87428549Y-73772800D01*
X87276169Y-72972800D02*
X87314264Y-73201371D01*
X87314264Y-73201371D02*
X87276169Y-73315657D01*
X87276169Y-73315657D02*
X87352359Y-73696609D01*
X87733311Y-73125180D02*
X88076168Y-73125180D01*
X87771406Y-73810895D02*
X87923787Y-73810895D01*
X87923787Y-72896609D02*
X87923787Y-73810895D01*
X88076168Y-73391847D02*
X87733311Y-73468038D01*
X88114263Y-73087085D02*
X88685692Y-73087085D01*
X88380930Y-72896609D02*
X88380930Y-73048990D01*
X88228549Y-73239466D02*
X88228549Y-73506133D01*
X88228549Y-73506133D02*
X88190454Y-73696609D01*
X88228549Y-73239466D02*
X88533311Y-73239466D01*
X88533311Y-73239466D02*
X88571406Y-73810895D01*
X88571406Y-73810895D02*
X88685692Y-73810895D01*
X88685692Y-73810895D02*
X88761882Y-73658514D01*
X89063800Y-61386714D02*
X89087609Y-61315286D01*
X89087609Y-61315286D02*
X89087609Y-61196238D01*
X89087609Y-61196238D02*
X89063800Y-61148619D01*
X89063800Y-61148619D02*
X89039990Y-61124810D01*
X89039990Y-61124810D02*
X88992371Y-61101000D01*
X88992371Y-61101000D02*
X88944752Y-61101000D01*
X88944752Y-61101000D02*
X88897133Y-61124810D01*
X88897133Y-61124810D02*
X88873323Y-61148619D01*
X88873323Y-61148619D02*
X88849514Y-61196238D01*
X88849514Y-61196238D02*
X88825704Y-61291476D01*
X88825704Y-61291476D02*
X88801895Y-61339095D01*
X88801895Y-61339095D02*
X88778085Y-61362905D01*
X88778085Y-61362905D02*
X88730466Y-61386714D01*
X88730466Y-61386714D02*
X88682847Y-61386714D01*
X88682847Y-61386714D02*
X88635228Y-61362905D01*
X88635228Y-61362905D02*
X88611419Y-61339095D01*
X88611419Y-61339095D02*
X88587609Y-61291476D01*
X88587609Y-61291476D02*
X88587609Y-61172429D01*
X88587609Y-61172429D02*
X88611419Y-61101000D01*
X89087609Y-60815286D02*
X89063800Y-60862905D01*
X89063800Y-60862905D02*
X89016180Y-60886715D01*
X89016180Y-60886715D02*
X88587609Y-60886715D01*
X89087609Y-60410524D02*
X88825704Y-60410524D01*
X88825704Y-60410524D02*
X88778085Y-60434334D01*
X88778085Y-60434334D02*
X88754276Y-60481953D01*
X88754276Y-60481953D02*
X88754276Y-60577191D01*
X88754276Y-60577191D02*
X88778085Y-60624810D01*
X89063800Y-60410524D02*
X89087609Y-60458143D01*
X89087609Y-60458143D02*
X89087609Y-60577191D01*
X89087609Y-60577191D02*
X89063800Y-60624810D01*
X89063800Y-60624810D02*
X89016180Y-60648619D01*
X89016180Y-60648619D02*
X88968561Y-60648619D01*
X88968561Y-60648619D02*
X88920942Y-60624810D01*
X88920942Y-60624810D02*
X88897133Y-60577191D01*
X88897133Y-60577191D02*
X88897133Y-60458143D01*
X88897133Y-60458143D02*
X88873323Y-60410524D01*
X88754276Y-60220048D02*
X89087609Y-60101000D01*
X89087609Y-60101000D02*
X88754276Y-59981953D01*
X89063800Y-59601001D02*
X89087609Y-59648620D01*
X89087609Y-59648620D02*
X89087609Y-59743858D01*
X89087609Y-59743858D02*
X89063800Y-59791477D01*
X89063800Y-59791477D02*
X89016180Y-59815286D01*
X89016180Y-59815286D02*
X88825704Y-59815286D01*
X88825704Y-59815286D02*
X88778085Y-59791477D01*
X88778085Y-59791477D02*
X88754276Y-59743858D01*
X88754276Y-59743858D02*
X88754276Y-59648620D01*
X88754276Y-59648620D02*
X88778085Y-59601001D01*
X88778085Y-59601001D02*
X88825704Y-59577191D01*
X88825704Y-59577191D02*
X88873323Y-59577191D01*
X88873323Y-59577191D02*
X88920942Y-59815286D01*
X89087609Y-58981954D02*
X88587609Y-58981954D01*
X88587609Y-58981954D02*
X88944752Y-58815287D01*
X88944752Y-58815287D02*
X88587609Y-58648621D01*
X88587609Y-58648621D02*
X89087609Y-58648621D01*
X89087609Y-58196239D02*
X88825704Y-58196239D01*
X88825704Y-58196239D02*
X88778085Y-58220049D01*
X88778085Y-58220049D02*
X88754276Y-58267668D01*
X88754276Y-58267668D02*
X88754276Y-58362906D01*
X88754276Y-58362906D02*
X88778085Y-58410525D01*
X89063800Y-58196239D02*
X89087609Y-58243858D01*
X89087609Y-58243858D02*
X89087609Y-58362906D01*
X89087609Y-58362906D02*
X89063800Y-58410525D01*
X89063800Y-58410525D02*
X89016180Y-58434334D01*
X89016180Y-58434334D02*
X88968561Y-58434334D01*
X88968561Y-58434334D02*
X88920942Y-58410525D01*
X88920942Y-58410525D02*
X88897133Y-58362906D01*
X88897133Y-58362906D02*
X88897133Y-58243858D01*
X88897133Y-58243858D02*
X88873323Y-58196239D01*
X89063800Y-57981953D02*
X89087609Y-57934334D01*
X89087609Y-57934334D02*
X89087609Y-57839096D01*
X89087609Y-57839096D02*
X89063800Y-57791477D01*
X89063800Y-57791477D02*
X89016180Y-57767668D01*
X89016180Y-57767668D02*
X88992371Y-57767668D01*
X88992371Y-57767668D02*
X88944752Y-57791477D01*
X88944752Y-57791477D02*
X88920942Y-57839096D01*
X88920942Y-57839096D02*
X88920942Y-57910525D01*
X88920942Y-57910525D02*
X88897133Y-57958144D01*
X88897133Y-57958144D02*
X88849514Y-57981953D01*
X88849514Y-57981953D02*
X88825704Y-57981953D01*
X88825704Y-57981953D02*
X88778085Y-57958144D01*
X88778085Y-57958144D02*
X88754276Y-57910525D01*
X88754276Y-57910525D02*
X88754276Y-57839096D01*
X88754276Y-57839096D02*
X88778085Y-57791477D01*
X88754276Y-57624810D02*
X88754276Y-57434334D01*
X88587609Y-57553382D02*
X89016180Y-57553382D01*
X89016180Y-57553382D02*
X89063800Y-57529572D01*
X89063800Y-57529572D02*
X89087609Y-57481953D01*
X89087609Y-57481953D02*
X89087609Y-57434334D01*
X89063800Y-57077192D02*
X89087609Y-57124811D01*
X89087609Y-57124811D02*
X89087609Y-57220049D01*
X89087609Y-57220049D02*
X89063800Y-57267668D01*
X89063800Y-57267668D02*
X89016180Y-57291477D01*
X89016180Y-57291477D02*
X88825704Y-57291477D01*
X88825704Y-57291477D02*
X88778085Y-57267668D01*
X88778085Y-57267668D02*
X88754276Y-57220049D01*
X88754276Y-57220049D02*
X88754276Y-57124811D01*
X88754276Y-57124811D02*
X88778085Y-57077192D01*
X88778085Y-57077192D02*
X88825704Y-57053382D01*
X88825704Y-57053382D02*
X88873323Y-57053382D01*
X88873323Y-57053382D02*
X88920942Y-57291477D01*
X89087609Y-56839097D02*
X88754276Y-56839097D01*
X88849514Y-56839097D02*
X88801895Y-56815287D01*
X88801895Y-56815287D02*
X88778085Y-56791478D01*
X88778085Y-56791478D02*
X88754276Y-56743859D01*
X88754276Y-56743859D02*
X88754276Y-56696240D01*
X66512169Y-74280800D02*
X66626455Y-74318895D01*
X66626455Y-74318895D02*
X66816931Y-74318895D01*
X66816931Y-74318895D02*
X66893122Y-74280800D01*
X66893122Y-74280800D02*
X66931217Y-74242704D01*
X66931217Y-74242704D02*
X66969312Y-74166514D01*
X66969312Y-74166514D02*
X66969312Y-74090323D01*
X66969312Y-74090323D02*
X66931217Y-74014133D01*
X66931217Y-74014133D02*
X66893122Y-73976038D01*
X66893122Y-73976038D02*
X66816931Y-73937942D01*
X66816931Y-73937942D02*
X66664550Y-73899847D01*
X66664550Y-73899847D02*
X66588360Y-73861752D01*
X66588360Y-73861752D02*
X66550265Y-73823657D01*
X66550265Y-73823657D02*
X66512169Y-73747466D01*
X66512169Y-73747466D02*
X66512169Y-73671276D01*
X66512169Y-73671276D02*
X66550265Y-73595085D01*
X66550265Y-73595085D02*
X66588360Y-73556990D01*
X66588360Y-73556990D02*
X66664550Y-73518895D01*
X66664550Y-73518895D02*
X66855027Y-73518895D01*
X66855027Y-73518895D02*
X66969312Y-73556990D01*
X67312170Y-74318895D02*
X67312170Y-73518895D01*
X67312170Y-73518895D02*
X67616932Y-73518895D01*
X67616932Y-73518895D02*
X67693122Y-73556990D01*
X67693122Y-73556990D02*
X67731217Y-73595085D01*
X67731217Y-73595085D02*
X67769313Y-73671276D01*
X67769313Y-73671276D02*
X67769313Y-73785561D01*
X67769313Y-73785561D02*
X67731217Y-73861752D01*
X67731217Y-73861752D02*
X67693122Y-73899847D01*
X67693122Y-73899847D02*
X67616932Y-73937942D01*
X67616932Y-73937942D02*
X67312170Y-73937942D01*
X68112170Y-74318895D02*
X68112170Y-73518895D01*
X69102646Y-73899847D02*
X69369312Y-73899847D01*
X69483598Y-74318895D02*
X69102646Y-74318895D01*
X69102646Y-74318895D02*
X69102646Y-73518895D01*
X69102646Y-73518895D02*
X69483598Y-73518895D01*
X69750265Y-74318895D02*
X70169313Y-73785561D01*
X69750265Y-73785561D02*
X70169313Y-74318895D01*
X70359789Y-73785561D02*
X70664551Y-73785561D01*
X70474075Y-73518895D02*
X70474075Y-74204609D01*
X70474075Y-74204609D02*
X70512170Y-74280800D01*
X70512170Y-74280800D02*
X70588360Y-74318895D01*
X70588360Y-74318895D02*
X70664551Y-74318895D01*
X71235980Y-74280800D02*
X71159789Y-74318895D01*
X71159789Y-74318895D02*
X71007408Y-74318895D01*
X71007408Y-74318895D02*
X70931218Y-74280800D01*
X70931218Y-74280800D02*
X70893122Y-74204609D01*
X70893122Y-74204609D02*
X70893122Y-73899847D01*
X70893122Y-73899847D02*
X70931218Y-73823657D01*
X70931218Y-73823657D02*
X71007408Y-73785561D01*
X71007408Y-73785561D02*
X71159789Y-73785561D01*
X71159789Y-73785561D02*
X71235980Y-73823657D01*
X71235980Y-73823657D02*
X71274075Y-73899847D01*
X71274075Y-73899847D02*
X71274075Y-73976038D01*
X71274075Y-73976038D02*
X70893122Y-74052228D01*
X71616932Y-73785561D02*
X71616932Y-74318895D01*
X71616932Y-73861752D02*
X71655027Y-73823657D01*
X71655027Y-73823657D02*
X71731217Y-73785561D01*
X71731217Y-73785561D02*
X71845503Y-73785561D01*
X71845503Y-73785561D02*
X71921694Y-73823657D01*
X71921694Y-73823657D02*
X71959789Y-73899847D01*
X71959789Y-73899847D02*
X71959789Y-74318895D01*
X72683599Y-74318895D02*
X72683599Y-73518895D01*
X72683599Y-74280800D02*
X72607408Y-74318895D01*
X72607408Y-74318895D02*
X72455027Y-74318895D01*
X72455027Y-74318895D02*
X72378837Y-74280800D01*
X72378837Y-74280800D02*
X72340742Y-74242704D01*
X72340742Y-74242704D02*
X72302646Y-74166514D01*
X72302646Y-74166514D02*
X72302646Y-73937942D01*
X72302646Y-73937942D02*
X72340742Y-73861752D01*
X72340742Y-73861752D02*
X72378837Y-73823657D01*
X72378837Y-73823657D02*
X72455027Y-73785561D01*
X72455027Y-73785561D02*
X72607408Y-73785561D01*
X72607408Y-73785561D02*
X72683599Y-73823657D01*
X73369314Y-74280800D02*
X73293123Y-74318895D01*
X73293123Y-74318895D02*
X73140742Y-74318895D01*
X73140742Y-74318895D02*
X73064552Y-74280800D01*
X73064552Y-74280800D02*
X73026456Y-74204609D01*
X73026456Y-74204609D02*
X73026456Y-73899847D01*
X73026456Y-73899847D02*
X73064552Y-73823657D01*
X73064552Y-73823657D02*
X73140742Y-73785561D01*
X73140742Y-73785561D02*
X73293123Y-73785561D01*
X73293123Y-73785561D02*
X73369314Y-73823657D01*
X73369314Y-73823657D02*
X73407409Y-73899847D01*
X73407409Y-73899847D02*
X73407409Y-73976038D01*
X73407409Y-73976038D02*
X73026456Y-74052228D01*
X73750266Y-74318895D02*
X73750266Y-73785561D01*
X73750266Y-73937942D02*
X73788361Y-73861752D01*
X73788361Y-73861752D02*
X73826456Y-73823657D01*
X73826456Y-73823657D02*
X73902647Y-73785561D01*
X73902647Y-73785561D02*
X73978837Y-73785561D01*
X75312171Y-74318895D02*
X75045504Y-73937942D01*
X74855028Y-74318895D02*
X74855028Y-73518895D01*
X74855028Y-73518895D02*
X75159790Y-73518895D01*
X75159790Y-73518895D02*
X75235980Y-73556990D01*
X75235980Y-73556990D02*
X75274075Y-73595085D01*
X75274075Y-73595085D02*
X75312171Y-73671276D01*
X75312171Y-73671276D02*
X75312171Y-73785561D01*
X75312171Y-73785561D02*
X75274075Y-73861752D01*
X75274075Y-73861752D02*
X75235980Y-73899847D01*
X75235980Y-73899847D02*
X75159790Y-73937942D01*
X75159790Y-73937942D02*
X74855028Y-73937942D01*
X75959790Y-74280800D02*
X75883599Y-74318895D01*
X75883599Y-74318895D02*
X75731218Y-74318895D01*
X75731218Y-74318895D02*
X75655028Y-74280800D01*
X75655028Y-74280800D02*
X75616932Y-74204609D01*
X75616932Y-74204609D02*
X75616932Y-73899847D01*
X75616932Y-73899847D02*
X75655028Y-73823657D01*
X75655028Y-73823657D02*
X75731218Y-73785561D01*
X75731218Y-73785561D02*
X75883599Y-73785561D01*
X75883599Y-73785561D02*
X75959790Y-73823657D01*
X75959790Y-73823657D02*
X75997885Y-73899847D01*
X75997885Y-73899847D02*
X75997885Y-73976038D01*
X75997885Y-73976038D02*
X75616932Y-74052228D01*
X76264551Y-73785561D02*
X76455027Y-74318895D01*
X76455027Y-74318895D02*
X76645504Y-73785561D01*
X77369313Y-74318895D02*
X76912170Y-74318895D01*
X77140742Y-74318895D02*
X77140742Y-73518895D01*
X77140742Y-73518895D02*
X77064551Y-73633180D01*
X77064551Y-73633180D02*
X76988361Y-73709371D01*
X76988361Y-73709371D02*
X76912170Y-73747466D01*
X77712171Y-74242704D02*
X77750266Y-74280800D01*
X77750266Y-74280800D02*
X77712171Y-74318895D01*
X77712171Y-74318895D02*
X77674075Y-74280800D01*
X77674075Y-74280800D02*
X77712171Y-74242704D01*
X77712171Y-74242704D02*
X77712171Y-74318895D01*
X78245504Y-73518895D02*
X78321694Y-73518895D01*
X78321694Y-73518895D02*
X78397885Y-73556990D01*
X78397885Y-73556990D02*
X78435980Y-73595085D01*
X78435980Y-73595085D02*
X78474075Y-73671276D01*
X78474075Y-73671276D02*
X78512170Y-73823657D01*
X78512170Y-73823657D02*
X78512170Y-74014133D01*
X78512170Y-74014133D02*
X78474075Y-74166514D01*
X78474075Y-74166514D02*
X78435980Y-74242704D01*
X78435980Y-74242704D02*
X78397885Y-74280800D01*
X78397885Y-74280800D02*
X78321694Y-74318895D01*
X78321694Y-74318895D02*
X78245504Y-74318895D01*
X78245504Y-74318895D02*
X78169313Y-74280800D01*
X78169313Y-74280800D02*
X78131218Y-74242704D01*
X78131218Y-74242704D02*
X78093123Y-74166514D01*
X78093123Y-74166514D02*
X78055027Y-74014133D01*
X78055027Y-74014133D02*
X78055027Y-73823657D01*
X78055027Y-73823657D02*
X78093123Y-73671276D01*
X78093123Y-73671276D02*
X78131218Y-73595085D01*
X78131218Y-73595085D02*
X78169313Y-73556990D01*
X78169313Y-73556990D02*
X78245504Y-73518895D01*
D12*
%TO.C,T1*%
X93792040Y-57811710D02*
X93792040Y-66973490D01*
X93792040Y-66973490D02*
X103311960Y-66973490D01*
X103311960Y-57811710D02*
X93792040Y-57811710D01*
X103311960Y-66973490D02*
X103311960Y-57811710D01*
X93472000Y-56423600D02*
G75*
G02*
X93218000Y-56423600I-127000J0D01*
G01*
X93218000Y-56423600D02*
G75*
G02*
X93472000Y-56423600I127000J0D01*
G01*
D13*
%TO.C,R1*%
X89647500Y-68532742D02*
X89647500Y-69007258D01*
X90692500Y-68532742D02*
X90692500Y-69007258D01*
%TO.C,JP1*%
X79260000Y-60625000D02*
X79260000Y-60025000D01*
X79960000Y-59325000D02*
X81360000Y-59325000D01*
X81360000Y-61325000D02*
X79960000Y-61325000D01*
X82060000Y-60025000D02*
X82060000Y-60625000D01*
X79260000Y-60025000D02*
G75*
G02*
X79960000Y-59325000I699999J1D01*
G01*
X79960000Y-61325000D02*
G75*
G02*
X79260000Y-60625000I-1J699999D01*
G01*
X81360000Y-59325000D02*
G75*
G02*
X82060000Y-60025000I0J-700000D01*
G01*
X82060000Y-60625000D02*
G75*
G02*
X81360000Y-61325000I-700000J0D01*
G01*
%TO.C,JP4*%
X85580000Y-60625000D02*
X85580000Y-60025000D01*
X86280000Y-59325000D02*
X87680000Y-59325000D01*
X87680000Y-61325000D02*
X86280000Y-61325000D01*
X88380000Y-60025000D02*
X88380000Y-60625000D01*
X85580000Y-60025000D02*
G75*
G02*
X86280000Y-59325000I700000J0D01*
G01*
X86280000Y-61325000D02*
G75*
G02*
X85580000Y-60625000I0J700000D01*
G01*
X87680000Y-59325000D02*
G75*
G02*
X88380000Y-60025000I1J-699999D01*
G01*
X88380000Y-60625000D02*
G75*
G02*
X87680000Y-61325000I-699999J-1D01*
G01*
%TO.C,R2*%
X89647500Y-58067742D02*
X89647500Y-58542258D01*
X90692500Y-58067742D02*
X90692500Y-58542258D01*
%TO.C,C2*%
X79500000Y-69849420D02*
X79500000Y-70130580D01*
X80520000Y-69849420D02*
X80520000Y-70130580D01*
%TO.C,JP3*%
X85580000Y-58085000D02*
X85580000Y-57485000D01*
X86280000Y-56785000D02*
X87680000Y-56785000D01*
X87680000Y-58785000D02*
X86280000Y-58785000D01*
X88380000Y-57485000D02*
X88380000Y-58085000D01*
X85580000Y-57485000D02*
G75*
G02*
X86280000Y-56785000I699999J1D01*
G01*
X86280000Y-58785000D02*
G75*
G02*
X85580000Y-58085000I-1J699999D01*
G01*
X87680000Y-56785000D02*
G75*
G02*
X88380000Y-57485000I0J-700000D01*
G01*
X88380000Y-58085000D02*
G75*
G02*
X87680000Y-58785000I-700000J0D01*
G01*
%TO.C,R3*%
X89647500Y-61547742D02*
X89647500Y-62022258D01*
X90692500Y-61547742D02*
X90692500Y-62022258D01*
%TO.C,C1*%
X89660000Y-65050580D02*
X89660000Y-64769420D01*
X90680000Y-65050580D02*
X90680000Y-64769420D01*
%TO.C,JP2*%
X79230000Y-58085000D02*
X79230000Y-57485000D01*
X79930000Y-56785000D02*
X81330000Y-56785000D01*
X81330000Y-58785000D02*
X79930000Y-58785000D01*
X82030000Y-57485000D02*
X82030000Y-58085000D01*
X79230000Y-57485000D02*
G75*
G02*
X79930000Y-56785000I699999J1D01*
G01*
X79930000Y-58785000D02*
G75*
G02*
X79230000Y-58085000I-1J699999D01*
G01*
X81330000Y-56785000D02*
G75*
G02*
X82030000Y-57485000I0J-700000D01*
G01*
X82030000Y-58085000D02*
G75*
G02*
X81330000Y-58785000I-700000J0D01*
G01*
%TO.C,R4*%
X81812000Y-73279000D02*
X82582000Y-73279000D01*
X89892000Y-73279000D02*
X89122000Y-73279000D01*
X89122000Y-74649000D02*
X82582000Y-74649000D01*
X82582000Y-71909000D01*
X89122000Y-71909000D01*
X89122000Y-74649000D01*
%TO.C,J1*%
X66050000Y-57990000D02*
X72050000Y-57990000D01*
X66050000Y-58850000D02*
X66050000Y-57990000D01*
X66050000Y-60530000D02*
X72050000Y-60530000D01*
X66050000Y-61390000D02*
X66050000Y-60530000D01*
X66050000Y-63070000D02*
X72050000Y-63070000D01*
X66050000Y-63930000D02*
X66050000Y-63070000D01*
X66050000Y-65610000D02*
X72050000Y-65610000D01*
X66050000Y-66470000D02*
X66050000Y-65610000D01*
X66050000Y-68150000D02*
X72050000Y-68150000D01*
X66050000Y-69010000D02*
X66050000Y-68150000D01*
X72050000Y-57040000D02*
X72050000Y-72500000D01*
X72050000Y-58850000D02*
X66050000Y-58850000D01*
X72050000Y-61390000D02*
X66050000Y-61390000D01*
X72050000Y-63930000D02*
X66050000Y-63930000D01*
X72050000Y-66470000D02*
X66050000Y-66470000D01*
X72050000Y-69010000D02*
X66050000Y-69010000D01*
X72050000Y-72500000D02*
X74810000Y-72500000D01*
X74810000Y-57040000D02*
X72050000Y-57040000D01*
X74810000Y-59690000D02*
X72050000Y-59690000D01*
X74810000Y-62230000D02*
X72050000Y-62230000D01*
X74810000Y-64770000D02*
X72050000Y-64770000D01*
X74810000Y-67310000D02*
X72050000Y-67310000D01*
X74810000Y-69850000D02*
X72050000Y-69850000D01*
X74810000Y-72500000D02*
X74810000Y-57040000D01*
X75040000Y-70690000D02*
X74810000Y-70690000D01*
X75040000Y-71550000D02*
X74810000Y-71550000D01*
X75122642Y-57990000D02*
X74810000Y-57990000D01*
X75122642Y-58850000D02*
X74810000Y-58850000D01*
X75122642Y-60530000D02*
X74810000Y-60530000D01*
X75122642Y-61390000D02*
X74810000Y-61390000D01*
X75122642Y-63070000D02*
X74810000Y-63070000D01*
X75122642Y-63930000D02*
X74810000Y-63930000D01*
X75122642Y-65610000D02*
X74810000Y-65610000D01*
X75122642Y-66470000D02*
X74810000Y-66470000D01*
X75122642Y-68150000D02*
X74810000Y-68150000D01*
X75122642Y-69010000D02*
X74810000Y-69010000D01*
X77470000Y-71120000D02*
X77470000Y-72390000D01*
X77470000Y-72390000D02*
X76200000Y-72390000D01*
X72050000Y-71550000D02*
X66050000Y-71550000D01*
X66050000Y-70690000D01*
X72050000Y-70690000D01*
X72050000Y-71550000D01*
G36*
X72050000Y-71550000D02*
G01*
X66050000Y-71550000D01*
X66050000Y-70690000D01*
X72050000Y-70690000D01*
X72050000Y-71550000D01*
G37*
%TO.C,J2*%
X92770000Y-69070000D02*
X94040000Y-69070000D01*
X92770000Y-70340000D02*
X92770000Y-69070000D01*
X95117358Y-72450000D02*
X95430000Y-72450000D01*
X95117358Y-73310000D02*
X95430000Y-73310000D01*
X95200000Y-69910000D02*
X95430000Y-69910000D01*
X95200000Y-70770000D02*
X95430000Y-70770000D01*
X95430000Y-68960000D02*
X95430000Y-74260000D01*
X95430000Y-71610000D02*
X98190000Y-71610000D01*
X95430000Y-74260000D02*
X98190000Y-74260000D01*
X98190000Y-68960000D02*
X95430000Y-68960000D01*
X98190000Y-72450000D02*
X104190000Y-72450000D01*
X98190000Y-74260000D02*
X98190000Y-68960000D01*
X104190000Y-72450000D02*
X104190000Y-73310000D01*
X104190000Y-73310000D02*
X98190000Y-73310000D01*
X98190000Y-69910000D02*
X104190000Y-69910000D01*
X104190000Y-70770000D01*
X98190000Y-70770000D01*
X98190000Y-69910000D01*
G36*
X98190000Y-69910000D02*
G01*
X104190000Y-69910000D01*
X104190000Y-70770000D01*
X98190000Y-70770000D01*
X98190000Y-69910000D01*
G37*
%TO.C,U1*%
X83725000Y-63090000D02*
X86945000Y-63090000D01*
X86945000Y-67410000D02*
X83725000Y-67410000D01*
X82195000Y-63500000D02*
X81865000Y-63740000D01*
X81865000Y-63260000D01*
X82195000Y-63500000D01*
G36*
X82195000Y-63500000D02*
G01*
X81865000Y-63740000D01*
X81865000Y-63260000D01*
X82195000Y-63500000D01*
G37*
%TD*%
%LPC*%
%TO.C,JP1*%
G36*
X80510000Y-59575000D02*
G01*
X80810000Y-59575000D01*
X80810000Y-61075000D01*
X80510000Y-61075000D01*
X80510000Y-59575000D01*
G37*
%TO.C,JP4*%
G36*
X87130000Y-61075000D02*
G01*
X86830000Y-61075000D01*
X86830000Y-59575000D01*
X87130000Y-59575000D01*
X87130000Y-61075000D01*
G37*
%TO.C,JP3*%
G36*
X86830000Y-57035000D02*
G01*
X87130000Y-57035000D01*
X87130000Y-58535000D01*
X86830000Y-58535000D01*
X86830000Y-57035000D01*
G37*
%TO.C,JP2*%
G36*
X80480000Y-57035000D02*
G01*
X80780000Y-57035000D01*
X80780000Y-58535000D01*
X80480000Y-58535000D01*
X80480000Y-57035000D01*
G37*
%TD*%
D14*
%TO.C,T1*%
X93472000Y-59852600D03*
X93472000Y-62392600D03*
X93472000Y-64932600D03*
X103632000Y-64932600D03*
X103632000Y-62392600D03*
X103632000Y-59852600D03*
%TD*%
D15*
%TO.C,R1*%
X90170000Y-67945000D03*
X90170000Y-69595000D03*
%TD*%
D16*
%TO.C,JP1*%
X80010000Y-60325000D03*
D17*
X81310000Y-60325000D03*
%TD*%
D18*
%TO.C,JP4*%
X87630000Y-60325000D03*
D19*
X86330000Y-60325000D03*
%TD*%
D15*
%TO.C,R2*%
X90170000Y-57480000D03*
X90170000Y-59130000D03*
%TD*%
D20*
%TO.C,C2*%
X80010000Y-69215000D03*
X80010000Y-70765000D03*
%TD*%
D16*
%TO.C,JP3*%
X86330000Y-57785000D03*
D17*
X87630000Y-57785000D03*
%TD*%
D15*
%TO.C,R3*%
X90170000Y-60960000D03*
X90170000Y-62610000D03*
%TD*%
D21*
%TO.C,C1*%
X90170000Y-65685000D03*
X90170000Y-64135000D03*
%TD*%
D16*
%TO.C,JP2*%
X79980000Y-57785000D03*
D17*
X81280000Y-57785000D03*
%TD*%
D22*
%TO.C,R4*%
X90932000Y-73279000D03*
X80772000Y-73279000D03*
%TD*%
D23*
%TO.C,J1*%
X76200000Y-71120000D03*
D24*
X76200000Y-68580000D03*
X76200000Y-66040000D03*
X76200000Y-63500000D03*
X76200000Y-60960000D03*
X76200000Y-58420000D03*
%TD*%
D23*
%TO.C,J2*%
X94040000Y-70340000D03*
D24*
X94040000Y-72880000D03*
%TD*%
D25*
%TO.C,U1*%
X83185000Y-63500000D03*
X83185000Y-64000000D03*
X83185000Y-64500000D03*
X83185000Y-65000000D03*
X83185000Y-65500000D03*
X83185000Y-66000000D03*
X83185000Y-66500000D03*
X83185000Y-67000000D03*
X87485000Y-67000000D03*
X87485000Y-66500000D03*
X87485000Y-66000000D03*
X87485000Y-65500000D03*
X87485000Y-65000000D03*
X87485000Y-64500000D03*
X87485000Y-64000000D03*
X87485000Y-63500000D03*
%TD*%
%LPD*%
M02*
