%TF.GenerationSoftware,KiCad,Pcbnew,9.0.5*%
%TF.CreationDate,2025-11-27T21:34:18+09:00*%
%TF.ProjectId,ltc6820,6c746336-3832-4302-9e6b-696361645f70,rev?*%
%TF.SameCoordinates,Original*%
%TF.FileFunction,Soldermask,Top*%
%TF.FilePolarity,Negative*%
%FSLAX46Y46*%
G04 Gerber Fmt 4.6, Leading zero omitted, Abs format (unit mm)*
G04 Created by KiCad (PCBNEW 9.0.5) date 2025-11-27 21:34:18*
%MOMM*%
%LPD*%
G01*
G04 APERTURE LIST*
G04 Aperture macros list*
%AMRoundRect*
0 Rectangle with rounded corners*
0 $1 Rounding radius*
0 $2 $3 $4 $5 $6 $7 $8 $9 X,Y pos of 4 corners*
0 Add a 4 corners polygon primitive as box body*
4,1,4,$2,$3,$4,$5,$6,$7,$8,$9,$2,$3,0*
0 Add four circle primitives for the rounded corners*
1,1,$1+$1,$2,$3*
1,1,$1+$1,$4,$5*
1,1,$1+$1,$6,$7*
1,1,$1+$1,$8,$9*
0 Add four rect primitives between the rounded corners*
20,1,$1+$1,$2,$3,$4,$5,0*
20,1,$1+$1,$4,$5,$6,$7,0*
20,1,$1+$1,$6,$7,$8,$9,0*
20,1,$1+$1,$8,$9,$2,$3,0*%
%AMFreePoly0*
4,1,23,0.500000,-0.750000,0.000000,-0.750000,0.000000,-0.745722,-0.065263,-0.745722,-0.191342,-0.711940,-0.304381,-0.646677,-0.396677,-0.554381,-0.461940,-0.441342,-0.495722,-0.315263,-0.495722,-0.250000,-0.500000,-0.250000,-0.500000,0.250000,-0.495722,0.250000,-0.495722,0.315263,-0.461940,0.441342,-0.396677,0.554381,-0.304381,0.646677,-0.191342,0.711940,-0.065263,0.745722,0.000000,0.745722,
0.000000,0.750000,0.500000,0.750000,0.500000,-0.750000,0.500000,-0.750000,$1*%
%AMFreePoly1*
4,1,23,0.000000,0.745722,0.065263,0.745722,0.191342,0.711940,0.304381,0.646677,0.396677,0.554381,0.461940,0.441342,0.495722,0.315263,0.495722,0.250000,0.500000,0.250000,0.500000,-0.250000,0.495722,-0.250000,0.495722,-0.315263,0.461940,-0.441342,0.396677,-0.554381,0.304381,-0.646677,0.191342,-0.711940,0.065263,-0.745722,0.000000,-0.745722,0.000000,-0.750000,-0.500000,-0.750000,
-0.500000,0.750000,0.000000,0.750000,0.000000,0.745722,0.000000,0.745722,$1*%
G04 Aperture macros list end*
%ADD10C,1.404000*%
%ADD11RoundRect,0.200000X-0.275000X0.200000X-0.275000X-0.200000X0.275000X-0.200000X0.275000X0.200000X0*%
%ADD12FreePoly0,0.000000*%
%ADD13FreePoly1,0.000000*%
%ADD14FreePoly0,180.000000*%
%ADD15FreePoly1,180.000000*%
%ADD16RoundRect,0.225000X-0.250000X0.225000X-0.250000X-0.225000X0.250000X-0.225000X0.250000X0.225000X0*%
%ADD17RoundRect,0.225000X0.250000X-0.225000X0.250000X0.225000X-0.250000X0.225000X-0.250000X-0.225000X0*%
%ADD18C,1.600000*%
%ADD19R,1.700000X1.700000*%
%ADD20C,1.700000*%
%ADD21RoundRect,0.075000X-0.650000X-0.075000X0.650000X-0.075000X0.650000X0.075000X-0.650000X0.075000X0*%
G04 APERTURE END LIST*
%TO.C,JP1*%
G36*
X80510000Y-59575000D02*
G01*
X80810000Y-59575000D01*
X80810000Y-61075000D01*
X80510000Y-61075000D01*
X80510000Y-59575000D01*
G37*
%TO.C,JP4*%
G36*
X87130000Y-61075000D02*
G01*
X86830000Y-61075000D01*
X86830000Y-59575000D01*
X87130000Y-59575000D01*
X87130000Y-61075000D01*
G37*
%TO.C,JP3*%
G36*
X86830000Y-57035000D02*
G01*
X87130000Y-57035000D01*
X87130000Y-58535000D01*
X86830000Y-58535000D01*
X86830000Y-57035000D01*
G37*
%TO.C,JP2*%
G36*
X80480000Y-57035000D02*
G01*
X80780000Y-57035000D01*
X80780000Y-58535000D01*
X80480000Y-58535000D01*
X80480000Y-57035000D01*
G37*
%TD*%
D10*
%TO.C,T1*%
X93472000Y-59852600D03*
X93472000Y-62392600D03*
X93472000Y-64932600D03*
X103632000Y-64932600D03*
X103632000Y-62392600D03*
X103632000Y-59852600D03*
%TD*%
D11*
%TO.C,R1*%
X90170000Y-67945000D03*
X90170000Y-69595000D03*
%TD*%
D12*
%TO.C,JP1*%
X80010000Y-60325000D03*
D13*
X81310000Y-60325000D03*
%TD*%
D14*
%TO.C,JP4*%
X87630000Y-60325000D03*
D15*
X86330000Y-60325000D03*
%TD*%
D11*
%TO.C,R2*%
X90170000Y-57480000D03*
X90170000Y-59130000D03*
%TD*%
D16*
%TO.C,C2*%
X80010000Y-69215000D03*
X80010000Y-70765000D03*
%TD*%
D12*
%TO.C,JP3*%
X86330000Y-57785000D03*
D13*
X87630000Y-57785000D03*
%TD*%
D11*
%TO.C,R3*%
X90170000Y-60960000D03*
X90170000Y-62610000D03*
%TD*%
D17*
%TO.C,C1*%
X90170000Y-65685000D03*
X90170000Y-64135000D03*
%TD*%
D12*
%TO.C,JP2*%
X79980000Y-57785000D03*
D13*
X81280000Y-57785000D03*
%TD*%
D18*
%TO.C,R4*%
X90932000Y-73279000D03*
X80772000Y-73279000D03*
%TD*%
D19*
%TO.C,J1*%
X76200000Y-71120000D03*
D20*
X76200000Y-68580000D03*
X76200000Y-66040000D03*
X76200000Y-63500000D03*
X76200000Y-60960000D03*
X76200000Y-58420000D03*
%TD*%
D19*
%TO.C,J2*%
X94040000Y-70340000D03*
D20*
X94040000Y-72880000D03*
%TD*%
D21*
%TO.C,U1*%
X83185000Y-63500000D03*
X83185000Y-64000000D03*
X83185000Y-64500000D03*
X83185000Y-65000000D03*
X83185000Y-65500000D03*
X83185000Y-66000000D03*
X83185000Y-66500000D03*
X83185000Y-67000000D03*
X87485000Y-67000000D03*
X87485000Y-66500000D03*
X87485000Y-66000000D03*
X87485000Y-65500000D03*
X87485000Y-65000000D03*
X87485000Y-64500000D03*
X87485000Y-64000000D03*
X87485000Y-63500000D03*
%TD*%
M02*
