M48
; DRILL file {KiCad 9.0.5} date 2025-11-27T21:34:18+0900
; FORMAT={-:-/ absolute / inch / decimal}
; #@! TF.CreationDate,2025-11-27T21:34:18+09:00
; #@! TF.GenerationSoftware,Kicad,Pcbnew,9.0.5
; #@! TF.FileFunction,Plated,1,2,PTH
FMAT,2
INCH
; #@! TA.AperFunction,Plated,PTH,ViaDrill
T1C0.0197
; #@! TA.AperFunction,Plated,PTH,ComponentDrill
T2C0.0315
; #@! TA.AperFunction,Plated,PTH,ComponentDrill
T3C0.0390
; #@! TA.AperFunction,Plated,PTH,ComponentDrill
T4C0.0394
%
G90
G05
T1
X3.275Y-2.675
X3.275Y-2.8
X3.29Y-2.375
X3.325Y-2.245
T2
X3.18Y-2.885
X3.58Y-2.885
T3
X3.68Y-2.3564
X3.68Y-2.4564
X3.68Y-2.5564
X4.08Y-2.3564
X4.08Y-2.4564
X4.08Y-2.5564
T4
X3.0Y-2.3
X3.0Y-2.4
X3.0Y-2.5
X3.0Y-2.6
X3.0Y-2.7
X3.0Y-2.8
X3.7024Y-2.7693
X3.7024Y-2.8693
M30
