M48
; DRILL file {KiCad 9.0.5} date 2025-12-15T00:22:42+0900
; FORMAT={-:-/ absolute / inch / decimal}
; #@! TF.CreationDate,2025-12-15T00:22:42+09:00
; #@! TF.GenerationSoftware,Kicad,Pcbnew,9.0.5
; #@! TF.FileFunction,Plated,1,2,PTH
FMAT,2
INCH
; #@! TA.AperFunction,Plated,PTH,ViaDrill
T1C0.0197
; #@! TA.AperFunction,Plated,PTH,ComponentDrill
T2C0.0315
; #@! TA.AperFunction,Plated,PTH,ComponentDrill
T3C0.0390
; #@! TA.AperFunction,Plated,PTH,ComponentDrill
T4C0.0394
%
G90
G05
T1
X2.74Y-2.32
X2.84Y-2.32
X2.95Y-2.32
X3.05Y-2.19
T2
X2.69Y-1.87
X2.69Y-2.0
X3.09Y-1.87
X3.09Y-2.0
T3
X3.57Y-1.89
X3.57Y-2.29
X3.67Y-1.89
X3.67Y-2.29
X3.77Y-1.89
X3.77Y-2.29
T4
X2.53Y-1.93
X2.53Y-2.03
X2.53Y-2.13
X2.53Y-2.23
X2.53Y-2.33
X2.53Y-2.43
X3.5274Y-2.4298
X3.5274Y-2.5298
M30
