%TF.GenerationSoftware,KiCad,Pcbnew,9.0.5*%
%TF.CreationDate,2025-12-15T00:22:42+09:00*%
%TF.ProjectId,ltc6820,6c746336-3832-4302-9e6b-696361645f70,rev?*%
%TF.SameCoordinates,Original*%
%TF.FileFunction,Legend,Top*%
%TF.FilePolarity,Positive*%
%FSLAX46Y46*%
G04 Gerber Fmt 4.6, Leading zero omitted, Abs format (unit mm)*
G04 Created by KiCad (PCBNEW 9.0.5) date 2025-12-15 00:22:42*
%MOMM*%
%LPD*%
G01*
G04 APERTURE LIST*
G04 Aperture macros list*
%AMRoundRect*
0 Rectangle with rounded corners*
0 $1 Rounding radius*
0 $2 $3 $4 $5 $6 $7 $8 $9 X,Y pos of 4 corners*
0 Add a 4 corners polygon primitive as box body*
4,1,4,$2,$3,$4,$5,$6,$7,$8,$9,$2,$3,0*
0 Add four circle primitives for the rounded corners*
1,1,$1+$1,$2,$3*
1,1,$1+$1,$4,$5*
1,1,$1+$1,$6,$7*
1,1,$1+$1,$8,$9*
0 Add four rect primitives between the rounded corners*
20,1,$1+$1,$2,$3,$4,$5,0*
20,1,$1+$1,$4,$5,$6,$7,0*
20,1,$1+$1,$6,$7,$8,$9,0*
20,1,$1+$1,$8,$9,$2,$3,0*%
%AMFreePoly0*
4,1,23,0.500000,-0.750000,0.000000,-0.750000,0.000000,-0.745722,-0.065263,-0.745722,-0.191342,-0.711940,-0.304381,-0.646677,-0.396677,-0.554381,-0.461940,-0.441342,-0.495722,-0.315263,-0.495722,-0.250000,-0.500000,-0.250000,-0.500000,0.250000,-0.495722,0.250000,-0.495722,0.315263,-0.461940,0.441342,-0.396677,0.554381,-0.304381,0.646677,-0.191342,0.711940,-0.065263,0.745722,0.000000,0.745722,
0.000000,0.750000,0.500000,0.750000,0.500000,-0.750000,0.500000,-0.750000,$1*%
%AMFreePoly1*
4,1,23,0.000000,0.745722,0.065263,0.745722,0.191342,0.711940,0.304381,0.646677,0.396677,0.554381,0.461940,0.441342,0.495722,0.315263,0.495722,0.250000,0.500000,0.250000,0.500000,-0.250000,0.495722,-0.250000,0.495722,-0.315263,0.461940,-0.441342,0.396677,-0.554381,0.304381,-0.646677,0.191342,-0.711940,0.065263,-0.745722,0.000000,-0.745722,0.000000,-0.750000,-0.500000,-0.750000,
-0.500000,0.750000,0.000000,0.750000,0.000000,0.745722,0.000000,0.745722,$1*%
G04 Aperture macros list end*
%ADD10C,0.100000*%
%ADD11C,0.120000*%
%ADD12C,0.254000*%
%ADD13RoundRect,0.075000X-0.650000X-0.075000X0.650000X-0.075000X0.650000X0.075000X-0.650000X0.075000X0*%
%ADD14C,1.600000*%
%ADD15RoundRect,0.200000X-0.275000X0.200000X-0.275000X-0.200000X0.275000X-0.200000X0.275000X0.200000X0*%
%ADD16FreePoly0,270.000000*%
%ADD17FreePoly1,270.000000*%
%ADD18C,1.404000*%
%ADD19RoundRect,0.225000X-0.250000X0.225000X-0.250000X-0.225000X0.250000X-0.225000X0.250000X0.225000X0*%
%ADD20R,1.700000X1.700000*%
%ADD21C,1.700000*%
G04 APERTURE END LIST*
D10*
X54104265Y-66118800D02*
X54247122Y-66166419D01*
X54247122Y-66166419D02*
X54485217Y-66166419D01*
X54485217Y-66166419D02*
X54580455Y-66118800D01*
X54580455Y-66118800D02*
X54628074Y-66071180D01*
X54628074Y-66071180D02*
X54675693Y-65975942D01*
X54675693Y-65975942D02*
X54675693Y-65880704D01*
X54675693Y-65880704D02*
X54628074Y-65785466D01*
X54628074Y-65785466D02*
X54580455Y-65737847D01*
X54580455Y-65737847D02*
X54485217Y-65690228D01*
X54485217Y-65690228D02*
X54294741Y-65642609D01*
X54294741Y-65642609D02*
X54199503Y-65594990D01*
X54199503Y-65594990D02*
X54151884Y-65547371D01*
X54151884Y-65547371D02*
X54104265Y-65452133D01*
X54104265Y-65452133D02*
X54104265Y-65356895D01*
X54104265Y-65356895D02*
X54151884Y-65261657D01*
X54151884Y-65261657D02*
X54199503Y-65214038D01*
X54199503Y-65214038D02*
X54294741Y-65166419D01*
X54294741Y-65166419D02*
X54532836Y-65166419D01*
X54532836Y-65166419D02*
X54675693Y-65214038D01*
X55104265Y-66166419D02*
X55104265Y-65166419D01*
X55104265Y-65166419D02*
X55485217Y-65166419D01*
X55485217Y-65166419D02*
X55580455Y-65214038D01*
X55580455Y-65214038D02*
X55628074Y-65261657D01*
X55628074Y-65261657D02*
X55675693Y-65356895D01*
X55675693Y-65356895D02*
X55675693Y-65499752D01*
X55675693Y-65499752D02*
X55628074Y-65594990D01*
X55628074Y-65594990D02*
X55580455Y-65642609D01*
X55580455Y-65642609D02*
X55485217Y-65690228D01*
X55485217Y-65690228D02*
X55104265Y-65690228D01*
X56104265Y-66166419D02*
X56104265Y-65166419D01*
X57342360Y-65642609D02*
X57675693Y-65642609D01*
X57818550Y-66166419D02*
X57342360Y-66166419D01*
X57342360Y-66166419D02*
X57342360Y-65166419D01*
X57342360Y-65166419D02*
X57818550Y-65166419D01*
X58151884Y-66166419D02*
X58675693Y-65499752D01*
X58151884Y-65499752D02*
X58675693Y-66166419D01*
X58913789Y-65499752D02*
X59294741Y-65499752D01*
X59056646Y-65166419D02*
X59056646Y-66023561D01*
X59056646Y-66023561D02*
X59104265Y-66118800D01*
X59104265Y-66118800D02*
X59199503Y-66166419D01*
X59199503Y-66166419D02*
X59294741Y-66166419D01*
X60009027Y-66118800D02*
X59913789Y-66166419D01*
X59913789Y-66166419D02*
X59723313Y-66166419D01*
X59723313Y-66166419D02*
X59628075Y-66118800D01*
X59628075Y-66118800D02*
X59580456Y-66023561D01*
X59580456Y-66023561D02*
X59580456Y-65642609D01*
X59580456Y-65642609D02*
X59628075Y-65547371D01*
X59628075Y-65547371D02*
X59723313Y-65499752D01*
X59723313Y-65499752D02*
X59913789Y-65499752D01*
X59913789Y-65499752D02*
X60009027Y-65547371D01*
X60009027Y-65547371D02*
X60056646Y-65642609D01*
X60056646Y-65642609D02*
X60056646Y-65737847D01*
X60056646Y-65737847D02*
X59580456Y-65833085D01*
X60485218Y-65499752D02*
X60485218Y-66166419D01*
X60485218Y-65594990D02*
X60532837Y-65547371D01*
X60532837Y-65547371D02*
X60628075Y-65499752D01*
X60628075Y-65499752D02*
X60770932Y-65499752D01*
X60770932Y-65499752D02*
X60866170Y-65547371D01*
X60866170Y-65547371D02*
X60913789Y-65642609D01*
X60913789Y-65642609D02*
X60913789Y-66166419D01*
X61818551Y-66166419D02*
X61818551Y-65166419D01*
X61818551Y-66118800D02*
X61723313Y-66166419D01*
X61723313Y-66166419D02*
X61532837Y-66166419D01*
X61532837Y-66166419D02*
X61437599Y-66118800D01*
X61437599Y-66118800D02*
X61389980Y-66071180D01*
X61389980Y-66071180D02*
X61342361Y-65975942D01*
X61342361Y-65975942D02*
X61342361Y-65690228D01*
X61342361Y-65690228D02*
X61389980Y-65594990D01*
X61389980Y-65594990D02*
X61437599Y-65547371D01*
X61437599Y-65547371D02*
X61532837Y-65499752D01*
X61532837Y-65499752D02*
X61723313Y-65499752D01*
X61723313Y-65499752D02*
X61818551Y-65547371D01*
X62675694Y-66118800D02*
X62580456Y-66166419D01*
X62580456Y-66166419D02*
X62389980Y-66166419D01*
X62389980Y-66166419D02*
X62294742Y-66118800D01*
X62294742Y-66118800D02*
X62247123Y-66023561D01*
X62247123Y-66023561D02*
X62247123Y-65642609D01*
X62247123Y-65642609D02*
X62294742Y-65547371D01*
X62294742Y-65547371D02*
X62389980Y-65499752D01*
X62389980Y-65499752D02*
X62580456Y-65499752D01*
X62580456Y-65499752D02*
X62675694Y-65547371D01*
X62675694Y-65547371D02*
X62723313Y-65642609D01*
X62723313Y-65642609D02*
X62723313Y-65737847D01*
X62723313Y-65737847D02*
X62247123Y-65833085D01*
X63151885Y-66166419D02*
X63151885Y-65499752D01*
X63151885Y-65690228D02*
X63199504Y-65594990D01*
X63199504Y-65594990D02*
X63247123Y-65547371D01*
X63247123Y-65547371D02*
X63342361Y-65499752D01*
X63342361Y-65499752D02*
X63437599Y-65499752D01*
X65104266Y-66166419D02*
X64770933Y-65690228D01*
X64532838Y-66166419D02*
X64532838Y-65166419D01*
X64532838Y-65166419D02*
X64913790Y-65166419D01*
X64913790Y-65166419D02*
X65009028Y-65214038D01*
X65009028Y-65214038D02*
X65056647Y-65261657D01*
X65056647Y-65261657D02*
X65104266Y-65356895D01*
X65104266Y-65356895D02*
X65104266Y-65499752D01*
X65104266Y-65499752D02*
X65056647Y-65594990D01*
X65056647Y-65594990D02*
X65009028Y-65642609D01*
X65009028Y-65642609D02*
X64913790Y-65690228D01*
X64913790Y-65690228D02*
X64532838Y-65690228D01*
X65913790Y-66118800D02*
X65818552Y-66166419D01*
X65818552Y-66166419D02*
X65628076Y-66166419D01*
X65628076Y-66166419D02*
X65532838Y-66118800D01*
X65532838Y-66118800D02*
X65485219Y-66023561D01*
X65485219Y-66023561D02*
X65485219Y-65642609D01*
X65485219Y-65642609D02*
X65532838Y-65547371D01*
X65532838Y-65547371D02*
X65628076Y-65499752D01*
X65628076Y-65499752D02*
X65818552Y-65499752D01*
X65818552Y-65499752D02*
X65913790Y-65547371D01*
X65913790Y-65547371D02*
X65961409Y-65642609D01*
X65961409Y-65642609D02*
X65961409Y-65737847D01*
X65961409Y-65737847D02*
X65485219Y-65833085D01*
X66294743Y-65499752D02*
X66532838Y-66166419D01*
X66532838Y-66166419D02*
X66770933Y-65499752D01*
X67866172Y-65261657D02*
X67913791Y-65214038D01*
X67913791Y-65214038D02*
X68009029Y-65166419D01*
X68009029Y-65166419D02*
X68247124Y-65166419D01*
X68247124Y-65166419D02*
X68342362Y-65214038D01*
X68342362Y-65214038D02*
X68389981Y-65261657D01*
X68389981Y-65261657D02*
X68437600Y-65356895D01*
X68437600Y-65356895D02*
X68437600Y-65452133D01*
X68437600Y-65452133D02*
X68389981Y-65594990D01*
X68389981Y-65594990D02*
X67818553Y-66166419D01*
X67818553Y-66166419D02*
X68437600Y-66166419D01*
X68866172Y-66071180D02*
X68913791Y-66118800D01*
X68913791Y-66118800D02*
X68866172Y-66166419D01*
X68866172Y-66166419D02*
X68818553Y-66118800D01*
X68818553Y-66118800D02*
X68866172Y-66071180D01*
X68866172Y-66071180D02*
X68866172Y-66166419D01*
X69532838Y-65166419D02*
X69628076Y-65166419D01*
X69628076Y-65166419D02*
X69723314Y-65214038D01*
X69723314Y-65214038D02*
X69770933Y-65261657D01*
X69770933Y-65261657D02*
X69818552Y-65356895D01*
X69818552Y-65356895D02*
X69866171Y-65547371D01*
X69866171Y-65547371D02*
X69866171Y-65785466D01*
X69866171Y-65785466D02*
X69818552Y-65975942D01*
X69818552Y-65975942D02*
X69770933Y-66071180D01*
X69770933Y-66071180D02*
X69723314Y-66118800D01*
X69723314Y-66118800D02*
X69628076Y-66166419D01*
X69628076Y-66166419D02*
X69532838Y-66166419D01*
X69532838Y-66166419D02*
X69437600Y-66118800D01*
X69437600Y-66118800D02*
X69389981Y-66071180D01*
X69389981Y-66071180D02*
X69342362Y-65975942D01*
X69342362Y-65975942D02*
X69294743Y-65785466D01*
X69294743Y-65785466D02*
X69294743Y-65547371D01*
X69294743Y-65547371D02*
X69342362Y-65356895D01*
X69342362Y-65356895D02*
X69389981Y-65261657D01*
X69389981Y-65261657D02*
X69437600Y-65214038D01*
X69437600Y-65214038D02*
X69532838Y-65166419D01*
D11*
%TO.C,U1*%
X69764000Y-53466000D02*
X72984000Y-53466000D01*
X72984000Y-57786000D02*
X69764000Y-57786000D01*
X68234000Y-53876000D02*
X67904000Y-54116000D01*
X67904000Y-53636000D01*
X68234000Y-53876000D01*
G36*
X68234000Y-53876000D02*
G01*
X67904000Y-54116000D01*
X67904000Y-53636000D01*
X68234000Y-53876000D01*
G37*
%TO.C,R5*%
X69366000Y-50800000D02*
X70136000Y-50800000D01*
X77446000Y-50800000D02*
X76676000Y-50800000D01*
X76676000Y-52170000D02*
X70136000Y-52170000D01*
X70136000Y-49430000D01*
X76676000Y-49430000D01*
X76676000Y-52170000D01*
%TO.C,R3*%
X75169500Y-61230742D02*
X75169500Y-61705258D01*
X76214500Y-61230742D02*
X76214500Y-61705258D01*
%TO.C,JP4*%
X78248000Y-58246000D02*
X78248000Y-56846000D01*
X78948000Y-56146000D02*
X79548000Y-56146000D01*
X79548000Y-58946000D02*
X78948000Y-58946000D01*
X80248000Y-56846000D02*
X80248000Y-58246000D01*
X78248000Y-56846000D02*
G75*
G02*
X78948000Y-56146000I699999J1D01*
G01*
X78948000Y-58946000D02*
G75*
G02*
X78248000Y-58246000I0J700000D01*
G01*
X79548000Y-56146000D02*
G75*
G02*
X80248000Y-56846000I1J-699999D01*
G01*
X80248000Y-58246000D02*
G75*
G02*
X79548000Y-58946000I-700000J0D01*
G01*
D12*
%TO.C,T1*%
X88637110Y-48326040D02*
X88637110Y-57845960D01*
X88637110Y-57845960D02*
X97798890Y-57845960D01*
X97798890Y-48326040D02*
X88637110Y-48326040D01*
X97798890Y-57845960D02*
X97798890Y-48326040D01*
X99314000Y-47879000D02*
G75*
G02*
X99060000Y-47879000I-127000J0D01*
G01*
X99060000Y-47879000D02*
G75*
G02*
X99314000Y-47879000I127000J0D01*
G01*
D11*
%TO.C,C1*%
X68324000Y-61327420D02*
X68324000Y-61608580D01*
X69344000Y-61327420D02*
X69344000Y-61608580D01*
%TO.C,JP3*%
X78248000Y-54802000D02*
X78248000Y-53402000D01*
X78948000Y-52702000D02*
X79548000Y-52702000D01*
X79548000Y-55502000D02*
X78948000Y-55502000D01*
X80248000Y-53402000D02*
X80248000Y-54802000D01*
X78248000Y-53402000D02*
G75*
G02*
X78948000Y-52702000I699999J1D01*
G01*
X78948000Y-55502000D02*
G75*
G02*
X78248000Y-54802000I0J700000D01*
G01*
X79548000Y-52702000D02*
G75*
G02*
X80248000Y-53402000I1J-699999D01*
G01*
X80248000Y-54802000D02*
G75*
G02*
X79548000Y-55502000I-700000J0D01*
G01*
%TO.C,R1*%
X78217500Y-61230742D02*
X78217500Y-61705258D01*
X79262500Y-61230742D02*
X79262500Y-61705258D01*
%TO.C,J2*%
X88325000Y-60447000D02*
X89595000Y-60447000D01*
X88325000Y-61717000D02*
X88325000Y-60447000D01*
X90672358Y-63827000D02*
X90985000Y-63827000D01*
X90672358Y-64687000D02*
X90985000Y-64687000D01*
X90755000Y-61287000D02*
X90985000Y-61287000D01*
X90755000Y-62147000D02*
X90985000Y-62147000D01*
X90985000Y-60337000D02*
X90985000Y-65637000D01*
X90985000Y-62987000D02*
X93745000Y-62987000D01*
X90985000Y-65637000D02*
X93745000Y-65637000D01*
X93745000Y-60337000D02*
X90985000Y-60337000D01*
X93745000Y-63827000D02*
X99745000Y-63827000D01*
X93745000Y-65637000D02*
X93745000Y-60337000D01*
X99745000Y-63827000D02*
X99745000Y-64687000D01*
X99745000Y-64687000D02*
X93745000Y-64687000D01*
X93745000Y-61287000D02*
X99745000Y-61287000D01*
X99745000Y-62147000D01*
X93745000Y-62147000D01*
X93745000Y-61287000D01*
G36*
X93745000Y-61287000D02*
G01*
X99745000Y-61287000D01*
X99745000Y-62147000D01*
X93745000Y-62147000D01*
X93745000Y-61287000D01*
G37*
%TO.C,R4*%
X69366000Y-47498000D02*
X70136000Y-47498000D01*
X77446000Y-47498000D02*
X76676000Y-47498000D01*
X76676000Y-48868000D02*
X70136000Y-48868000D01*
X70136000Y-46128000D01*
X76676000Y-46128000D01*
X76676000Y-48868000D01*
%TO.C,C2*%
X72896000Y-61327420D02*
X72896000Y-61608580D01*
X73916000Y-61327420D02*
X73916000Y-61608580D01*
%TO.C,J1*%
X54112000Y-48592000D02*
X60112000Y-48592000D01*
X54112000Y-49452000D02*
X54112000Y-48592000D01*
X54112000Y-51132000D02*
X60112000Y-51132000D01*
X54112000Y-51992000D02*
X54112000Y-51132000D01*
X54112000Y-53672000D02*
X60112000Y-53672000D01*
X54112000Y-54532000D02*
X54112000Y-53672000D01*
X54112000Y-56212000D02*
X60112000Y-56212000D01*
X54112000Y-57072000D02*
X54112000Y-56212000D01*
X54112000Y-58752000D02*
X60112000Y-58752000D01*
X54112000Y-59612000D02*
X54112000Y-58752000D01*
X60112000Y-47642000D02*
X60112000Y-63102000D01*
X60112000Y-49452000D02*
X54112000Y-49452000D01*
X60112000Y-51992000D02*
X54112000Y-51992000D01*
X60112000Y-54532000D02*
X54112000Y-54532000D01*
X60112000Y-57072000D02*
X54112000Y-57072000D01*
X60112000Y-59612000D02*
X54112000Y-59612000D01*
X60112000Y-63102000D02*
X62872000Y-63102000D01*
X62872000Y-47642000D02*
X60112000Y-47642000D01*
X62872000Y-50292000D02*
X60112000Y-50292000D01*
X62872000Y-52832000D02*
X60112000Y-52832000D01*
X62872000Y-55372000D02*
X60112000Y-55372000D01*
X62872000Y-57912000D02*
X60112000Y-57912000D01*
X62872000Y-60452000D02*
X60112000Y-60452000D01*
X62872000Y-63102000D02*
X62872000Y-47642000D01*
X63102000Y-61292000D02*
X62872000Y-61292000D01*
X63102000Y-62152000D02*
X62872000Y-62152000D01*
X63184642Y-48592000D02*
X62872000Y-48592000D01*
X63184642Y-49452000D02*
X62872000Y-49452000D01*
X63184642Y-51132000D02*
X62872000Y-51132000D01*
X63184642Y-51992000D02*
X62872000Y-51992000D01*
X63184642Y-53672000D02*
X62872000Y-53672000D01*
X63184642Y-54532000D02*
X62872000Y-54532000D01*
X63184642Y-56212000D02*
X62872000Y-56212000D01*
X63184642Y-57072000D02*
X62872000Y-57072000D01*
X63184642Y-58752000D02*
X62872000Y-58752000D01*
X63184642Y-59612000D02*
X62872000Y-59612000D01*
X65532000Y-61722000D02*
X65532000Y-62992000D01*
X65532000Y-62992000D02*
X64262000Y-62992000D01*
X60112000Y-62152000D02*
X54112000Y-62152000D01*
X54112000Y-61292000D01*
X60112000Y-61292000D01*
X60112000Y-62152000D01*
G36*
X60112000Y-62152000D02*
G01*
X54112000Y-62152000D01*
X54112000Y-61292000D01*
X60112000Y-61292000D01*
X60112000Y-62152000D01*
G37*
%TO.C,R2*%
X75931500Y-53610742D02*
X75931500Y-54085258D01*
X76976500Y-53610742D02*
X76976500Y-54085258D01*
%TD*%
%LPC*%
%TO.C,JP4*%
G36*
X79998000Y-57396000D02*
G01*
X78498000Y-57396000D01*
X78498000Y-57696000D01*
X79998000Y-57696000D01*
X79998000Y-57396000D01*
G37*
%TO.C,JP3*%
G36*
X79998000Y-53952000D02*
G01*
X78498000Y-53952000D01*
X78498000Y-54252000D01*
X79998000Y-54252000D01*
X79998000Y-53952000D01*
G37*
%TD*%
D13*
%TO.C,U1*%
X69224000Y-53876000D03*
X69224000Y-54376000D03*
X69224000Y-54876000D03*
X69224000Y-55376000D03*
X69224000Y-55876000D03*
X69224000Y-56376000D03*
X69224000Y-56876000D03*
X69224000Y-57376000D03*
X73524000Y-57376000D03*
X73524000Y-56876000D03*
X73524000Y-56376000D03*
X73524000Y-55876000D03*
X73524000Y-55376000D03*
X73524000Y-54876000D03*
X73524000Y-54376000D03*
X73524000Y-53876000D03*
%TD*%
D14*
%TO.C,R5*%
X78486000Y-50800000D03*
X68326000Y-50800000D03*
%TD*%
D15*
%TO.C,R3*%
X75692000Y-60643000D03*
X75692000Y-62293000D03*
%TD*%
D16*
%TO.C,JP4*%
X79248000Y-56896000D03*
D17*
X79248000Y-58196000D03*
%TD*%
D18*
%TO.C,T1*%
X95758000Y-48006000D03*
X93218000Y-48006000D03*
X90678000Y-48006000D03*
X90678000Y-58166000D03*
X93218000Y-58166000D03*
X95758000Y-58166000D03*
%TD*%
D19*
%TO.C,C1*%
X68834000Y-60693000D03*
X68834000Y-62243000D03*
%TD*%
D16*
%TO.C,JP3*%
X79248000Y-53452000D03*
D17*
X79248000Y-54752000D03*
%TD*%
D15*
%TO.C,R1*%
X78740000Y-60643000D03*
X78740000Y-62293000D03*
%TD*%
D20*
%TO.C,J2*%
X89595000Y-61717000D03*
D21*
X89595000Y-64257000D03*
%TD*%
D14*
%TO.C,R4*%
X78486000Y-47498000D03*
X68326000Y-47498000D03*
%TD*%
D19*
%TO.C,C2*%
X73406000Y-60693000D03*
X73406000Y-62243000D03*
%TD*%
D20*
%TO.C,J1*%
X64262000Y-61722000D03*
D21*
X64262000Y-59182000D03*
X64262000Y-56642000D03*
X64262000Y-54102000D03*
X64262000Y-51562000D03*
X64262000Y-49022000D03*
%TD*%
D15*
%TO.C,R2*%
X76454000Y-53023000D03*
X76454000Y-54673000D03*
%TD*%
%LPD*%
M02*
