%TF.GenerationSoftware,KiCad,Pcbnew,9.0.5*%
%TF.CreationDate,2025-12-15T00:22:42+09:00*%
%TF.ProjectId,ltc6820,6c746336-3832-4302-9e6b-696361645f70,rev?*%
%TF.SameCoordinates,Original*%
%TF.FileFunction,Copper,L1,Top*%
%TF.FilePolarity,Positive*%
%FSLAX46Y46*%
G04 Gerber Fmt 4.6, Leading zero omitted, Abs format (unit mm)*
G04 Created by KiCad (PCBNEW 9.0.5) date 2025-12-15 00:22:42*
%MOMM*%
%LPD*%
G01*
G04 APERTURE LIST*
G04 Aperture macros list*
%AMRoundRect*
0 Rectangle with rounded corners*
0 $1 Rounding radius*
0 $2 $3 $4 $5 $6 $7 $8 $9 X,Y pos of 4 corners*
0 Add a 4 corners polygon primitive as box body*
4,1,4,$2,$3,$4,$5,$6,$7,$8,$9,$2,$3,0*
0 Add four circle primitives for the rounded corners*
1,1,$1+$1,$2,$3*
1,1,$1+$1,$4,$5*
1,1,$1+$1,$6,$7*
1,1,$1+$1,$8,$9*
0 Add four rect primitives between the rounded corners*
20,1,$1+$1,$2,$3,$4,$5,0*
20,1,$1+$1,$4,$5,$6,$7,0*
20,1,$1+$1,$6,$7,$8,$9,0*
20,1,$1+$1,$8,$9,$2,$3,0*%
%AMFreePoly0*
4,1,23,0.500000,-0.750000,0.000000,-0.750000,0.000000,-0.745722,-0.065263,-0.745722,-0.191342,-0.711940,-0.304381,-0.646677,-0.396677,-0.554381,-0.461940,-0.441342,-0.495722,-0.315263,-0.495722,-0.250000,-0.500000,-0.250000,-0.500000,0.250000,-0.495722,0.250000,-0.495722,0.315263,-0.461940,0.441342,-0.396677,0.554381,-0.304381,0.646677,-0.191342,0.711940,-0.065263,0.745722,0.000000,0.745722,
0.000000,0.750000,0.500000,0.750000,0.500000,-0.750000,0.500000,-0.750000,$1*%
%AMFreePoly1*
4,1,23,0.000000,0.745722,0.065263,0.745722,0.191342,0.711940,0.304381,0.646677,0.396677,0.554381,0.461940,0.441342,0.495722,0.315263,0.495722,0.250000,0.500000,0.250000,0.500000,-0.250000,0.495722,-0.250000,0.495722,-0.315263,0.461940,-0.441342,0.396677,-0.554381,0.304381,-0.646677,0.191342,-0.711940,0.065263,-0.745722,0.000000,-0.745722,0.000000,-0.750000,-0.500000,-0.750000,
-0.500000,0.750000,0.000000,0.750000,0.000000,0.745722,0.000000,0.745722,$1*%
G04 Aperture macros list end*
%TA.AperFunction,SMDPad,CuDef*%
%ADD10RoundRect,0.075000X-0.650000X-0.075000X0.650000X-0.075000X0.650000X0.075000X-0.650000X0.075000X0*%
%TD*%
%TA.AperFunction,ComponentPad*%
%ADD11C,1.600000*%
%TD*%
%TA.AperFunction,SMDPad,CuDef*%
%ADD12RoundRect,0.200000X-0.275000X0.200000X-0.275000X-0.200000X0.275000X-0.200000X0.275000X0.200000X0*%
%TD*%
%TA.AperFunction,SMDPad,CuDef*%
%ADD13FreePoly0,270.000000*%
%TD*%
%TA.AperFunction,SMDPad,CuDef*%
%ADD14FreePoly1,270.000000*%
%TD*%
%TA.AperFunction,ComponentPad*%
%ADD15C,1.200000*%
%TD*%
%TA.AperFunction,SMDPad,CuDef*%
%ADD16RoundRect,0.225000X-0.250000X0.225000X-0.250000X-0.225000X0.250000X-0.225000X0.250000X0.225000X0*%
%TD*%
%TA.AperFunction,ComponentPad*%
%ADD17R,1.700000X1.700000*%
%TD*%
%TA.AperFunction,ComponentPad*%
%ADD18C,1.700000*%
%TD*%
%TA.AperFunction,ViaPad*%
%ADD19C,1.000000*%
%TD*%
%TA.AperFunction,Conductor*%
%ADD20C,0.300000*%
%TD*%
%TA.AperFunction,Conductor*%
%ADD21C,0.800000*%
%TD*%
G04 APERTURE END LIST*
D10*
%TO.P,U1,1,EN*%
%TO.N,+3V3*%
X69224000Y-53876000D03*
%TO.P,U1,2,MOSI*%
%TO.N,MOSI*%
X69224000Y-54376000D03*
%TO.P,U1,3,MISO*%
%TO.N,MISO*%
X69224000Y-54876000D03*
%TO.P,U1,4,SCK*%
%TO.N,SCK*%
X69224000Y-55376000D03*
%TO.P,U1,5,CS*%
%TO.N,CS*%
X69224000Y-55876000D03*
%TO.P,U1,6,VDDS*%
%TO.N,+3V3*%
X69224000Y-56376000D03*
%TO.P,U1,7,POL*%
%TO.N,GND*%
X69224000Y-56876000D03*
%TO.P,U1,8,PHA*%
X69224000Y-57376000D03*
%TO.P,U1,9,VDD*%
%TO.N,+3V3*%
X73524000Y-57376000D03*
%TO.P,U1,10,IM*%
%TO.N,Net-(U1-IM)*%
X73524000Y-56876000D03*
%TO.P,U1,11,IP*%
%TO.N,Net-(U1-IP)*%
X73524000Y-56376000D03*
%TO.P,U1,12,MSTR*%
%TO.N,MSTR*%
X73524000Y-55876000D03*
%TO.P,U1,13,SLOW*%
%TO.N,GND*%
X73524000Y-55376000D03*
%TO.P,U1,14,GND*%
X73524000Y-54876000D03*
%TO.P,U1,15,ICMP*%
%TO.N,Net-(U1-ICMP)*%
X73524000Y-54376000D03*
%TO.P,U1,16,IBIAS*%
%TO.N,Net-(U1-IBIAS)*%
X73524000Y-53876000D03*
%TD*%
D11*
%TO.P,R5,1*%
%TO.N,+3V3*%
X78486000Y-50800000D03*
%TO.P,R5,2*%
%TO.N,MISO*%
X68326000Y-50800000D03*
%TD*%
D12*
%TO.P,R3,1*%
%TO.N,Net-(U1-ICMP)*%
X75692000Y-60643000D03*
%TO.P,R3,2*%
%TO.N,GND*%
X75692000Y-62293000D03*
%TD*%
D13*
%TO.P,JP4,1,A*%
%TO.N,GND*%
X79248000Y-56896000D03*
D14*
%TO.P,JP4,2,B*%
%TO.N,MSTR*%
X79248000Y-58196000D03*
%TD*%
D15*
%TO.P,T1,1*%
%TO.N,Net-(U1-IP)*%
X95758000Y-48006000D03*
%TO.P,T1,2*%
%TO.N,unconnected-(T1-Pad2)*%
X93218000Y-48006000D03*
%TO.P,T1,3*%
%TO.N,Net-(U1-IM)*%
X90678000Y-48006000D03*
%TO.P,T1,4*%
%TO.N,IMM*%
X90678000Y-58166000D03*
%TO.P,T1,5*%
%TO.N,N/C*%
X93218000Y-58166000D03*
%TO.P,T1,6*%
%TO.N,IPP*%
X95758000Y-58166000D03*
%TD*%
D16*
%TO.P,C1,1*%
%TO.N,+3V3*%
X68834000Y-60693000D03*
%TO.P,C1,2*%
%TO.N,GND*%
X68834000Y-62243000D03*
%TD*%
D13*
%TO.P,JP3,1,A*%
%TO.N,+3V3*%
X79248000Y-53452000D03*
D14*
%TO.P,JP3,2,B*%
%TO.N,MSTR*%
X79248000Y-54752000D03*
%TD*%
D12*
%TO.P,R1,1*%
%TO.N,Net-(U1-IP)*%
X78740000Y-60643000D03*
%TO.P,R1,2*%
%TO.N,Net-(U1-IM)*%
X78740000Y-62293000D03*
%TD*%
D17*
%TO.P,J2,1,Pin_1*%
%TO.N,IPP*%
X89595000Y-61717000D03*
D18*
%TO.P,J2,2,Pin_2*%
%TO.N,IMM*%
X89595000Y-64257000D03*
%TD*%
D11*
%TO.P,R4,1*%
%TO.N,+3V3*%
X78486000Y-47498000D03*
%TO.P,R4,2*%
%TO.N,MOSI*%
X68326000Y-47498000D03*
%TD*%
D16*
%TO.P,C2,1*%
%TO.N,+3V3*%
X73406000Y-60693000D03*
%TO.P,C2,2*%
%TO.N,GND*%
X73406000Y-62243000D03*
%TD*%
D17*
%TO.P,J1,1,Pin_1*%
%TO.N,GND*%
X64262000Y-61722000D03*
D18*
%TO.P,J1,2,Pin_2*%
%TO.N,+3V3*%
X64262000Y-59182000D03*
%TO.P,J1,3,Pin_3*%
%TO.N,CS*%
X64262000Y-56642000D03*
%TO.P,J1,4,Pin_4*%
%TO.N,SCK*%
X64262000Y-54102000D03*
%TO.P,J1,5,Pin_5*%
%TO.N,MISO*%
X64262000Y-51562000D03*
%TO.P,J1,6,Pin_6*%
%TO.N,MOSI*%
X64262000Y-49022000D03*
%TD*%
D12*
%TO.P,R2,1*%
%TO.N,Net-(U1-IBIAS)*%
X76454000Y-53023000D03*
%TO.P,R2,2*%
%TO.N,Net-(U1-ICMP)*%
X76454000Y-54673000D03*
%TD*%
D19*
%TO.N,GND*%
X69596000Y-58928000D03*
X72136000Y-58928000D03*
%TO.N,Net-(U1-ICMP)*%
X77470000Y-55626000D03*
X74930000Y-58928000D03*
%TD*%
D20*
%TO.N,GND*%
X73524000Y-54876000D02*
X73524000Y-55376000D01*
X72632000Y-54876000D02*
X72132000Y-55376000D01*
X73524000Y-54876000D02*
X72632000Y-54876000D01*
D21*
X68834000Y-62243000D02*
X73406000Y-62243000D01*
X75642000Y-62243000D02*
X75692000Y-62293000D01*
D20*
X70612000Y-56896000D02*
X72132000Y-55376000D01*
X69224000Y-57376000D02*
X69224000Y-58556000D01*
D21*
X68313000Y-61722000D02*
X68834000Y-62243000D01*
D20*
X69224000Y-56876000D02*
X69224000Y-57376000D01*
X73524000Y-55376000D02*
X75897226Y-55376000D01*
X69224000Y-56876000D02*
X70592000Y-56876000D01*
D21*
X73406000Y-62243000D02*
X75642000Y-62243000D01*
D20*
X70592000Y-56876000D02*
X70612000Y-56896000D01*
X77417226Y-56896000D02*
X79248000Y-56896000D01*
X69224000Y-58556000D02*
X69596000Y-58928000D01*
X75897226Y-55376000D02*
X77417226Y-56896000D01*
D21*
X64262000Y-61722000D02*
X68313000Y-61722000D01*
D20*
X72132000Y-55376000D02*
X73524000Y-55376000D01*
X70592000Y-56876000D02*
X72136000Y-58420000D01*
X72136000Y-58420000D02*
X72136000Y-58928000D01*
%TO.N,+3V3*%
X62992000Y-50292000D02*
X62230000Y-51054000D01*
D21*
X64262000Y-59182000D02*
X67323000Y-59182000D01*
D20*
X69088000Y-49530000D02*
X65532000Y-49530000D01*
D21*
X78486000Y-50800000D02*
X78486000Y-47498000D01*
X64262000Y-59182000D02*
X62230000Y-57150000D01*
D20*
X73524000Y-57376000D02*
X73524000Y-60575000D01*
D21*
X76962000Y-45974000D02*
X65257976Y-45974000D01*
D20*
X71628000Y-54442466D02*
X75270466Y-50800000D01*
X69224000Y-56376000D02*
X70116000Y-56376000D01*
D21*
X65257976Y-45974000D02*
X62230000Y-49001976D01*
D20*
X65532000Y-49530000D02*
X64770000Y-50292000D01*
X62230000Y-51054000D02*
X62230000Y-57150000D01*
D21*
X78486000Y-50800000D02*
X79248000Y-51562000D01*
D20*
X69850000Y-53250000D02*
X69850000Y-50292000D01*
X71628000Y-54864000D02*
X71628000Y-54442466D01*
X73524000Y-60575000D02*
X73406000Y-60693000D01*
D21*
X67323000Y-59182000D02*
X68834000Y-60693000D01*
D20*
X69850000Y-50292000D02*
X69088000Y-49530000D01*
X75270466Y-50800000D02*
X78486000Y-50800000D01*
X69224000Y-53876000D02*
X69850000Y-53250000D01*
D21*
X68834000Y-60693000D02*
X73406000Y-60693000D01*
X62230000Y-49001976D02*
X62230000Y-57150000D01*
X78486000Y-47498000D02*
X76962000Y-45974000D01*
D20*
X64770000Y-50292000D02*
X62992000Y-50292000D01*
X70116000Y-56376000D02*
X71628000Y-54864000D01*
D21*
X79248000Y-51562000D02*
X79248000Y-53452000D01*
D20*
%TO.N,SCK*%
X66806000Y-55376000D02*
X65532000Y-54102000D01*
X65532000Y-54102000D02*
X64262000Y-54102000D01*
X69224000Y-55376000D02*
X66806000Y-55376000D01*
%TO.N,MISO*%
X67526001Y-54007535D02*
X68394466Y-54876000D01*
X67526001Y-51599999D02*
X67526001Y-54007535D01*
X64262000Y-51562000D02*
X67564000Y-51562000D01*
X67564000Y-51562000D02*
X68326000Y-50800000D01*
X68326000Y-50800000D02*
X67526001Y-51599999D01*
X68394466Y-54876000D02*
X69224000Y-54876000D01*
%TO.N,MOSI*%
X64262000Y-49022000D02*
X65786000Y-47498000D01*
X70592000Y-54376000D02*
X71120000Y-53848000D01*
X69224000Y-54376000D02*
X70592000Y-54376000D01*
X71120000Y-48768000D02*
X69850000Y-47498000D01*
X71120000Y-53848000D02*
X71120000Y-48768000D01*
X65786000Y-47498000D02*
X68326000Y-47498000D01*
X69850000Y-47498000D02*
X68326000Y-47498000D01*
%TO.N,CS*%
X65532000Y-56642000D02*
X64262000Y-56642000D01*
X66298000Y-55876000D02*
X65532000Y-56642000D01*
X69224000Y-55876000D02*
X66298000Y-55876000D01*
D21*
%TO.N,IPP*%
X92207000Y-61717000D02*
X89595000Y-61717000D01*
X95758000Y-58166000D02*
X92207000Y-61717000D01*
%TO.N,IMM*%
X89829472Y-58166000D02*
X87376000Y-60619472D01*
X88392919Y-64257000D02*
X89595000Y-64257000D01*
X87376000Y-63240081D02*
X88392919Y-64257000D01*
X90678000Y-58166000D02*
X89829472Y-58166000D01*
X87376000Y-60619472D02*
X87376000Y-63240081D01*
D20*
%TO.N,MSTR*%
X75688000Y-55876000D02*
X78008000Y-58196000D01*
X78008000Y-58196000D02*
X79248000Y-58196000D01*
X82296000Y-57658000D02*
X82296000Y-55880000D01*
X79248000Y-58196000D02*
X81758000Y-58196000D01*
X82296000Y-55880000D02*
X81168000Y-54752000D01*
X81758000Y-58196000D02*
X82296000Y-57658000D01*
X73524000Y-55876000D02*
X75688000Y-55876000D01*
X81168000Y-54752000D02*
X79248000Y-54752000D01*
%TO.N,Net-(U1-IP)*%
X76708000Y-57658000D02*
X76708000Y-59436000D01*
D21*
X84074000Y-48006000D02*
X84074000Y-57658000D01*
X84074000Y-57658000D02*
X81089000Y-60643000D01*
X81089000Y-60643000D02*
X78740000Y-60643000D01*
X95758000Y-48006000D02*
X92710000Y-44958000D01*
D20*
X73524000Y-56376000D02*
X75426000Y-56376000D01*
D21*
X92710000Y-44958000D02*
X87122000Y-44958000D01*
X87122000Y-44958000D02*
X84074000Y-48006000D01*
D20*
X77915000Y-60643000D02*
X78740000Y-60643000D01*
X76708000Y-59436000D02*
X77915000Y-60643000D01*
X75426000Y-56376000D02*
X76708000Y-57658000D01*
%TO.N,Net-(U1-IM)*%
X78601774Y-62293000D02*
X78740000Y-62293000D01*
X76207000Y-59898226D02*
X78601774Y-62293000D01*
D21*
X85090000Y-48405628D02*
X85090000Y-58057628D01*
X80854628Y-62293000D02*
X78740000Y-62293000D01*
X90678000Y-48006000D02*
X90678000Y-46736000D01*
X90678000Y-46736000D02*
X89901000Y-45959000D01*
D20*
X76207000Y-58427000D02*
X76207000Y-59898226D01*
X74656000Y-56876000D02*
X76207000Y-58427000D01*
D21*
X85090000Y-58057628D02*
X80854628Y-62293000D01*
X87536628Y-45959000D02*
X85090000Y-48405628D01*
X89901000Y-45959000D02*
X87536628Y-45959000D01*
D20*
X73524000Y-56876000D02*
X74656000Y-56876000D01*
%TO.N,Net-(U1-ICMP)*%
X73524000Y-54376000D02*
X74402000Y-54376000D01*
X77407000Y-55626000D02*
X76454000Y-54673000D01*
X74699000Y-54673000D02*
X76454000Y-54673000D01*
X74402000Y-54376000D02*
X74699000Y-54673000D01*
X74930000Y-58928000D02*
X74930000Y-59881000D01*
X74930000Y-59881000D02*
X75692000Y-60643000D01*
X77470000Y-55626000D02*
X77407000Y-55626000D01*
%TO.N,Net-(U1-IBIAS)*%
X76391000Y-53086000D02*
X76454000Y-53023000D01*
X73524000Y-53876000D02*
X74314000Y-53086000D01*
X74314000Y-53086000D02*
X76391000Y-53086000D01*
%TD*%
M02*
