%TF.GenerationSoftware,KiCad,Pcbnew,9.0.5*%
%TF.CreationDate,2025-12-15T00:22:42+09:00*%
%TF.ProjectId,ltc6820,6c746336-3832-4302-9e6b-696361645f70,rev?*%
%TF.SameCoordinates,Original*%
%TF.FileFunction,Soldermask,Top*%
%TF.FilePolarity,Negative*%
%FSLAX46Y46*%
G04 Gerber Fmt 4.6, Leading zero omitted, Abs format (unit mm)*
G04 Created by KiCad (PCBNEW 9.0.5) date 2025-12-15 00:22:42*
%MOMM*%
%LPD*%
G01*
G04 APERTURE LIST*
G04 Aperture macros list*
%AMRoundRect*
0 Rectangle with rounded corners*
0 $1 Rounding radius*
0 $2 $3 $4 $5 $6 $7 $8 $9 X,Y pos of 4 corners*
0 Add a 4 corners polygon primitive as box body*
4,1,4,$2,$3,$4,$5,$6,$7,$8,$9,$2,$3,0*
0 Add four circle primitives for the rounded corners*
1,1,$1+$1,$2,$3*
1,1,$1+$1,$4,$5*
1,1,$1+$1,$6,$7*
1,1,$1+$1,$8,$9*
0 Add four rect primitives between the rounded corners*
20,1,$1+$1,$2,$3,$4,$5,0*
20,1,$1+$1,$4,$5,$6,$7,0*
20,1,$1+$1,$6,$7,$8,$9,0*
20,1,$1+$1,$8,$9,$2,$3,0*%
%AMFreePoly0*
4,1,23,0.500000,-0.750000,0.000000,-0.750000,0.000000,-0.745722,-0.065263,-0.745722,-0.191342,-0.711940,-0.304381,-0.646677,-0.396677,-0.554381,-0.461940,-0.441342,-0.495722,-0.315263,-0.495722,-0.250000,-0.500000,-0.250000,-0.500000,0.250000,-0.495722,0.250000,-0.495722,0.315263,-0.461940,0.441342,-0.396677,0.554381,-0.304381,0.646677,-0.191342,0.711940,-0.065263,0.745722,0.000000,0.745722,
0.000000,0.750000,0.500000,0.750000,0.500000,-0.750000,0.500000,-0.750000,$1*%
%AMFreePoly1*
4,1,23,0.000000,0.745722,0.065263,0.745722,0.191342,0.711940,0.304381,0.646677,0.396677,0.554381,0.461940,0.441342,0.495722,0.315263,0.495722,0.250000,0.500000,0.250000,0.500000,-0.250000,0.495722,-0.250000,0.495722,-0.315263,0.461940,-0.441342,0.396677,-0.554381,0.304381,-0.646677,0.191342,-0.711940,0.065263,-0.745722,0.000000,-0.745722,0.000000,-0.750000,-0.500000,-0.750000,
-0.500000,0.750000,0.000000,0.750000,0.000000,0.745722,0.000000,0.745722,$1*%
G04 Aperture macros list end*
%ADD10RoundRect,0.075000X-0.650000X-0.075000X0.650000X-0.075000X0.650000X0.075000X-0.650000X0.075000X0*%
%ADD11C,1.600000*%
%ADD12RoundRect,0.200000X-0.275000X0.200000X-0.275000X-0.200000X0.275000X-0.200000X0.275000X0.200000X0*%
%ADD13FreePoly0,270.000000*%
%ADD14FreePoly1,270.000000*%
%ADD15C,1.404000*%
%ADD16RoundRect,0.225000X-0.250000X0.225000X-0.250000X-0.225000X0.250000X-0.225000X0.250000X0.225000X0*%
%ADD17R,1.700000X1.700000*%
%ADD18C,1.700000*%
G04 APERTURE END LIST*
%TO.C,JP4*%
G36*
X79998000Y-57396000D02*
G01*
X78498000Y-57396000D01*
X78498000Y-57696000D01*
X79998000Y-57696000D01*
X79998000Y-57396000D01*
G37*
%TO.C,JP3*%
G36*
X79998000Y-53952000D02*
G01*
X78498000Y-53952000D01*
X78498000Y-54252000D01*
X79998000Y-54252000D01*
X79998000Y-53952000D01*
G37*
%TD*%
D10*
%TO.C,U1*%
X69224000Y-53876000D03*
X69224000Y-54376000D03*
X69224000Y-54876000D03*
X69224000Y-55376000D03*
X69224000Y-55876000D03*
X69224000Y-56376000D03*
X69224000Y-56876000D03*
X69224000Y-57376000D03*
X73524000Y-57376000D03*
X73524000Y-56876000D03*
X73524000Y-56376000D03*
X73524000Y-55876000D03*
X73524000Y-55376000D03*
X73524000Y-54876000D03*
X73524000Y-54376000D03*
X73524000Y-53876000D03*
%TD*%
D11*
%TO.C,R5*%
X78486000Y-50800000D03*
X68326000Y-50800000D03*
%TD*%
D12*
%TO.C,R3*%
X75692000Y-60643000D03*
X75692000Y-62293000D03*
%TD*%
D13*
%TO.C,JP4*%
X79248000Y-56896000D03*
D14*
X79248000Y-58196000D03*
%TD*%
D15*
%TO.C,T1*%
X95758000Y-48006000D03*
X93218000Y-48006000D03*
X90678000Y-48006000D03*
X90678000Y-58166000D03*
X93218000Y-58166000D03*
X95758000Y-58166000D03*
%TD*%
D16*
%TO.C,C1*%
X68834000Y-60693000D03*
X68834000Y-62243000D03*
%TD*%
D13*
%TO.C,JP3*%
X79248000Y-53452000D03*
D14*
X79248000Y-54752000D03*
%TD*%
D12*
%TO.C,R1*%
X78740000Y-60643000D03*
X78740000Y-62293000D03*
%TD*%
D17*
%TO.C,J2*%
X89595000Y-61717000D03*
D18*
X89595000Y-64257000D03*
%TD*%
D11*
%TO.C,R4*%
X78486000Y-47498000D03*
X68326000Y-47498000D03*
%TD*%
D16*
%TO.C,C2*%
X73406000Y-60693000D03*
X73406000Y-62243000D03*
%TD*%
D17*
%TO.C,J1*%
X64262000Y-61722000D03*
D18*
X64262000Y-59182000D03*
X64262000Y-56642000D03*
X64262000Y-54102000D03*
X64262000Y-51562000D03*
X64262000Y-49022000D03*
%TD*%
D12*
%TO.C,R2*%
X76454000Y-53023000D03*
X76454000Y-54673000D03*
%TD*%
M02*
