%TF.GenerationSoftware,KiCad,Pcbnew,9.0.5*%
%TF.CreationDate,2025-11-27T21:34:17+09:00*%
%TF.ProjectId,ltc6820,6c746336-3832-4302-9e6b-696361645f70,rev?*%
%TF.SameCoordinates,Original*%
%TF.FileFunction,Copper,L1,Top*%
%TF.FilePolarity,Positive*%
%FSLAX46Y46*%
G04 Gerber Fmt 4.6, Leading zero omitted, Abs format (unit mm)*
G04 Created by KiCad (PCBNEW 9.0.5) date 2025-11-27 21:34:18*
%MOMM*%
%LPD*%
G01*
G04 APERTURE LIST*
G04 Aperture macros list*
%AMRoundRect*
0 Rectangle with rounded corners*
0 $1 Rounding radius*
0 $2 $3 $4 $5 $6 $7 $8 $9 X,Y pos of 4 corners*
0 Add a 4 corners polygon primitive as box body*
4,1,4,$2,$3,$4,$5,$6,$7,$8,$9,$2,$3,0*
0 Add four circle primitives for the rounded corners*
1,1,$1+$1,$2,$3*
1,1,$1+$1,$4,$5*
1,1,$1+$1,$6,$7*
1,1,$1+$1,$8,$9*
0 Add four rect primitives between the rounded corners*
20,1,$1+$1,$2,$3,$4,$5,0*
20,1,$1+$1,$4,$5,$6,$7,0*
20,1,$1+$1,$6,$7,$8,$9,0*
20,1,$1+$1,$8,$9,$2,$3,0*%
%AMFreePoly0*
4,1,23,0.500000,-0.750000,0.000000,-0.750000,0.000000,-0.745722,-0.065263,-0.745722,-0.191342,-0.711940,-0.304381,-0.646677,-0.396677,-0.554381,-0.461940,-0.441342,-0.495722,-0.315263,-0.495722,-0.250000,-0.500000,-0.250000,-0.500000,0.250000,-0.495722,0.250000,-0.495722,0.315263,-0.461940,0.441342,-0.396677,0.554381,-0.304381,0.646677,-0.191342,0.711940,-0.065263,0.745722,0.000000,0.745722,
0.000000,0.750000,0.500000,0.750000,0.500000,-0.750000,0.500000,-0.750000,$1*%
%AMFreePoly1*
4,1,23,0.000000,0.745722,0.065263,0.745722,0.191342,0.711940,0.304381,0.646677,0.396677,0.554381,0.461940,0.441342,0.495722,0.315263,0.495722,0.250000,0.500000,0.250000,0.500000,-0.250000,0.495722,-0.250000,0.495722,-0.315263,0.461940,-0.441342,0.396677,-0.554381,0.304381,-0.646677,0.191342,-0.711940,0.065263,-0.745722,0.000000,-0.745722,0.000000,-0.750000,-0.500000,-0.750000,
-0.500000,0.750000,0.000000,0.750000,0.000000,0.745722,0.000000,0.745722,$1*%
G04 Aperture macros list end*
%TA.AperFunction,ComponentPad*%
%ADD10C,1.200000*%
%TD*%
%TA.AperFunction,SMDPad,CuDef*%
%ADD11RoundRect,0.200000X-0.275000X0.200000X-0.275000X-0.200000X0.275000X-0.200000X0.275000X0.200000X0*%
%TD*%
%TA.AperFunction,SMDPad,CuDef*%
%ADD12FreePoly0,0.000000*%
%TD*%
%TA.AperFunction,SMDPad,CuDef*%
%ADD13FreePoly1,0.000000*%
%TD*%
%TA.AperFunction,SMDPad,CuDef*%
%ADD14FreePoly0,180.000000*%
%TD*%
%TA.AperFunction,SMDPad,CuDef*%
%ADD15FreePoly1,180.000000*%
%TD*%
%TA.AperFunction,SMDPad,CuDef*%
%ADD16RoundRect,0.225000X-0.250000X0.225000X-0.250000X-0.225000X0.250000X-0.225000X0.250000X0.225000X0*%
%TD*%
%TA.AperFunction,SMDPad,CuDef*%
%ADD17RoundRect,0.225000X0.250000X-0.225000X0.250000X0.225000X-0.250000X0.225000X-0.250000X-0.225000X0*%
%TD*%
%TA.AperFunction,ComponentPad*%
%ADD18C,1.600000*%
%TD*%
%TA.AperFunction,ComponentPad*%
%ADD19R,1.700000X1.700000*%
%TD*%
%TA.AperFunction,ComponentPad*%
%ADD20C,1.700000*%
%TD*%
%TA.AperFunction,SMDPad,CuDef*%
%ADD21RoundRect,0.075000X-0.650000X-0.075000X0.650000X-0.075000X0.650000X0.075000X-0.650000X0.075000X0*%
%TD*%
%TA.AperFunction,ViaPad*%
%ADD22C,1.000000*%
%TD*%
%TA.AperFunction,Conductor*%
%ADD23C,0.300000*%
%TD*%
%TA.AperFunction,Conductor*%
%ADD24C,0.800000*%
%TD*%
G04 APERTURE END LIST*
D10*
%TO.P,T1,1*%
%TO.N,Net-(U1-IP)*%
X93472000Y-59852600D03*
%TO.P,T1,2*%
%TO.N,Net-(C1-Pad1)*%
X93472000Y-62392600D03*
%TO.P,T1,3*%
%TO.N,Net-(U1-IM)*%
X93472000Y-64932600D03*
%TO.P,T1,4*%
%TO.N,IMM*%
X103632000Y-64932600D03*
%TO.P,T1,5*%
%TO.N,N/C*%
X103632000Y-62392600D03*
%TO.P,T1,6*%
%TO.N,IPP*%
X103632000Y-59852600D03*
%TD*%
D11*
%TO.P,R1,1*%
%TO.N,Net-(U1-IP)*%
X90170000Y-67945000D03*
%TO.P,R1,2*%
%TO.N,Net-(U1-IM)*%
X90170000Y-69595000D03*
%TD*%
D12*
%TO.P,JP1,1,A*%
%TO.N,MISO*%
X80010000Y-60325000D03*
D13*
%TO.P,JP1,2,B*%
%TO.N,Net-(JP1-B)*%
X81310000Y-60325000D03*
%TD*%
D14*
%TO.P,JP4,1,A*%
%TO.N,GND*%
X87630000Y-60325000D03*
D15*
%TO.P,JP4,2,B*%
%TO.N,MSTR*%
X86330000Y-60325000D03*
%TD*%
D11*
%TO.P,R2,1*%
%TO.N,Net-(U1-IBIAS)*%
X90170000Y-57480000D03*
%TO.P,R2,2*%
%TO.N,Net-(U1-ICMP)*%
X90170000Y-59130000D03*
%TD*%
D16*
%TO.P,C2,1*%
%TO.N,+3V3*%
X80010000Y-69215000D03*
%TO.P,C2,2*%
%TO.N,GND*%
X80010000Y-70765000D03*
%TD*%
D12*
%TO.P,JP3,1,A*%
%TO.N,+3V3*%
X86330000Y-57785000D03*
D13*
%TO.P,JP3,2,B*%
%TO.N,MSTR*%
X87630000Y-57785000D03*
%TD*%
D11*
%TO.P,R3,1*%
%TO.N,Net-(U1-ICMP)*%
X90170000Y-60960000D03*
%TO.P,R3,2*%
%TO.N,GND*%
X90170000Y-62610000D03*
%TD*%
D17*
%TO.P,C1,1*%
%TO.N,Net-(C1-Pad1)*%
X90170000Y-65685000D03*
%TO.P,C1,2*%
%TO.N,GND*%
X90170000Y-64135000D03*
%TD*%
D12*
%TO.P,JP2,1,A*%
%TO.N,MOSI*%
X79980000Y-57785000D03*
D13*
%TO.P,JP2,2,B*%
%TO.N,Net-(JP1-B)*%
X81280000Y-57785000D03*
%TD*%
D18*
%TO.P,R4,1*%
%TO.N,+3V3*%
X90932000Y-73279000D03*
%TO.P,R4,2*%
%TO.N,Net-(JP1-B)*%
X80772000Y-73279000D03*
%TD*%
D19*
%TO.P,J1,1,Pin_1*%
%TO.N,GND*%
X76200000Y-71120000D03*
D20*
%TO.P,J1,2,Pin_2*%
%TO.N,+3V3*%
X76200000Y-68580000D03*
%TO.P,J1,3,Pin_3*%
%TO.N,CS*%
X76200000Y-66040000D03*
%TO.P,J1,4,Pin_4*%
%TO.N,SCK*%
X76200000Y-63500000D03*
%TO.P,J1,5,Pin_5*%
%TO.N,MISO*%
X76200000Y-60960000D03*
%TO.P,J1,6,Pin_6*%
%TO.N,MOSI*%
X76200000Y-58420000D03*
%TD*%
D19*
%TO.P,J2,1,Pin_1*%
%TO.N,IPP*%
X94040000Y-70340000D03*
D20*
%TO.P,J2,2,Pin_2*%
%TO.N,IMM*%
X94040000Y-72880000D03*
%TD*%
D21*
%TO.P,U1,1,EN*%
%TO.N,+3V3*%
X83185000Y-63500000D03*
%TO.P,U1,2,MOSI*%
%TO.N,MOSI*%
X83185000Y-64000000D03*
%TO.P,U1,3,MISO*%
%TO.N,MISO*%
X83185000Y-64500000D03*
%TO.P,U1,4,SCK*%
%TO.N,SCK*%
X83185000Y-65000000D03*
%TO.P,U1,5,CS*%
%TO.N,CS*%
X83185000Y-65500000D03*
%TO.P,U1,6,VDDS*%
%TO.N,+3V3*%
X83185000Y-66000000D03*
%TO.P,U1,7,POL*%
%TO.N,GND*%
X83185000Y-66500000D03*
%TO.P,U1,8,PHA*%
X83185000Y-67000000D03*
%TO.P,U1,9,VDD*%
%TO.N,+3V3*%
X87485000Y-67000000D03*
%TO.P,U1,10,IM*%
%TO.N,Net-(U1-IM)*%
X87485000Y-66500000D03*
%TO.P,U1,11,IP*%
%TO.N,Net-(U1-IP)*%
X87485000Y-66000000D03*
%TO.P,U1,12,MSTR*%
%TO.N,MSTR*%
X87485000Y-65500000D03*
%TO.P,U1,13,SLOW*%
%TO.N,GND*%
X87485000Y-65000000D03*
%TO.P,U1,14,GND*%
X87485000Y-64500000D03*
%TO.P,U1,15,ICMP*%
%TO.N,Net-(U1-ICMP)*%
X87485000Y-64000000D03*
%TO.P,U1,16,IBIAS*%
%TO.N,Net-(U1-IBIAS)*%
X87485000Y-63500000D03*
%TD*%
D22*
%TO.N,GND*%
X83185000Y-67945000D03*
X83185000Y-71120000D03*
X84455000Y-57023000D03*
%TO.N,Net-(JP1-B)*%
X83566000Y-60325000D03*
%TD*%
D23*
%TO.N,GND*%
X83185000Y-67000000D02*
X83185000Y-67945000D01*
X83185000Y-66500000D02*
X83185000Y-67000000D01*
D24*
X91747000Y-61715074D02*
X90852074Y-62610000D01*
X91747000Y-57443672D02*
X91747000Y-61715074D01*
D23*
X90170000Y-64135000D02*
X89305000Y-65000000D01*
D24*
X82830000Y-70765000D02*
X83185000Y-71120000D01*
D23*
X89805000Y-64500000D02*
X90170000Y-64135000D01*
X89305000Y-65000000D02*
X87485000Y-65000000D01*
D24*
X90782328Y-56479000D02*
X91747000Y-57443672D01*
X87630000Y-60325000D02*
X88900000Y-59055000D01*
X78105000Y-71120000D02*
X78460000Y-70765000D01*
X88900000Y-57136672D02*
X89557672Y-56479000D01*
X85049000Y-56429000D02*
X84455000Y-57023000D01*
X90782328Y-56479000D02*
X90732328Y-56429000D01*
X89557672Y-56479000D02*
X90782328Y-56479000D01*
X90732328Y-56429000D02*
X85049000Y-56429000D01*
X76200000Y-71120000D02*
X78105000Y-71120000D01*
D23*
X87485000Y-64500000D02*
X89805000Y-64500000D01*
D24*
X90852074Y-62610000D02*
X90170000Y-62610000D01*
X80010000Y-70765000D02*
X82830000Y-70765000D01*
X78460000Y-70765000D02*
X80010000Y-70765000D01*
X90170000Y-62610000D02*
X90170000Y-64135000D01*
X88900000Y-59055000D02*
X88900000Y-57136672D01*
D23*
%TO.N,Net-(C1-Pad1)*%
X90170000Y-65430822D02*
X90170000Y-65685000D01*
X93472000Y-62392600D02*
X93208222Y-62392600D01*
X93345000Y-62510000D02*
X93345000Y-62090000D01*
X93208222Y-62392600D02*
X90170000Y-65430822D01*
%TO.N,+3V3*%
X84956000Y-59159000D02*
X84956000Y-62999000D01*
X87402500Y-67082500D02*
X86132500Y-67082500D01*
X86132500Y-67082500D02*
X85050000Y-66000000D01*
X87485000Y-67000000D02*
X85270000Y-69215000D01*
X86868000Y-69215000D02*
X83820000Y-69215000D01*
X87485000Y-67000000D02*
X87402500Y-67082500D01*
X84455000Y-65405000D02*
X85050000Y-66000000D01*
X84956000Y-62999000D02*
X84455000Y-63500000D01*
X85050000Y-66000000D02*
X83185000Y-66000000D01*
X90932000Y-73279000D02*
X86868000Y-69215000D01*
X84963000Y-69215000D02*
X83820000Y-69215000D01*
X83185000Y-63500000D02*
X84455000Y-63500000D01*
D24*
X76200000Y-68580000D02*
X79375000Y-68580000D01*
X79375000Y-68580000D02*
X80010000Y-69215000D01*
D23*
X84455000Y-63500000D02*
X84455000Y-65405000D01*
X86330000Y-57785000D02*
X84956000Y-59159000D01*
X83820000Y-69215000D02*
X80010000Y-69215000D01*
X85270000Y-69215000D02*
X84963000Y-69215000D01*
%TO.N,SCK*%
X76200000Y-63500000D02*
X80010000Y-63500000D01*
X81510000Y-65000000D02*
X83185000Y-65000000D01*
X80010000Y-63500000D02*
X81510000Y-65000000D01*
%TO.N,MISO*%
X76200000Y-60960000D02*
X79375000Y-60960000D01*
X79375000Y-60960000D02*
X80010000Y-60325000D01*
X80010000Y-60325000D02*
X80010000Y-62594000D01*
X81916000Y-64500000D02*
X83185000Y-64500000D01*
X80010000Y-62594000D02*
X81916000Y-64500000D01*
%TO.N,MOSI*%
X84455000Y-60960000D02*
X83947000Y-61468000D01*
X79345000Y-58420000D02*
X76200000Y-58420000D01*
X79980000Y-57331538D02*
X80632538Y-56679000D01*
X82893774Y-56679000D02*
X84455000Y-58240226D01*
X80632538Y-56679000D02*
X82893774Y-56679000D01*
X83947000Y-61468000D02*
X82042000Y-61468000D01*
X82124520Y-64000000D02*
X83185000Y-64000000D01*
X82042000Y-61468000D02*
X80817260Y-62692740D01*
X79980000Y-57785000D02*
X79345000Y-58420000D01*
X79980000Y-57785000D02*
X79980000Y-57331538D01*
X84455000Y-58240226D02*
X84455000Y-60960000D01*
X80817260Y-62692740D02*
X82124520Y-64000000D01*
%TO.N,CS*%
X79375000Y-66040000D02*
X76200000Y-66040000D01*
X79915000Y-65500000D02*
X79375000Y-66040000D01*
X83185000Y-65500000D02*
X79915000Y-65500000D01*
D24*
%TO.N,IPP*%
X96266000Y-61722000D02*
X96266000Y-68114000D01*
X103632000Y-59852600D02*
X98135400Y-59852600D01*
X96266000Y-68114000D02*
X94040000Y-70340000D01*
X98135400Y-59852600D02*
X96266000Y-61722000D01*
%TO.N,IMM*%
X103632000Y-64932600D02*
X95684600Y-72880000D01*
X95684600Y-72880000D02*
X94040000Y-72880000D01*
%TO.N,Net-(JP1-B)*%
X81280000Y-57785000D02*
X81280000Y-60295000D01*
X81280000Y-60295000D02*
X81310000Y-60325000D01*
X81310000Y-60325000D02*
X83566000Y-60325000D01*
D23*
%TO.N,MSTR*%
X87630000Y-58571538D02*
X86330000Y-59871538D01*
X85725000Y-60930000D02*
X85725000Y-64569534D01*
X86655466Y-65500000D02*
X87485000Y-65500000D01*
X85725000Y-64569534D02*
X86655466Y-65500000D01*
X86330000Y-59840000D02*
X86330000Y-60325000D01*
X86330000Y-60325000D02*
X85725000Y-60930000D01*
X86330000Y-59871538D02*
X86330000Y-60325000D01*
X87630000Y-57785000D02*
X87630000Y-58571538D01*
%TO.N,Net-(U1-IP)*%
X91948000Y-65532000D02*
X91948000Y-64516000D01*
X90170000Y-67945000D02*
X90170000Y-67236480D01*
X91948000Y-64516000D02*
X93120400Y-63343600D01*
X93882400Y-63343600D02*
X94488000Y-62738000D01*
X88265000Y-66000000D02*
X87485000Y-66000000D01*
X94488000Y-60868600D02*
X93472000Y-59852600D01*
X94488000Y-62738000D02*
X94488000Y-60868600D01*
X90170000Y-67236480D02*
X88936760Y-66003240D01*
X90243520Y-67236480D02*
X91948000Y-65532000D01*
X88933520Y-66000000D02*
X88265000Y-66000000D01*
X90170000Y-67236480D02*
X90243520Y-67236480D01*
X93120400Y-63343600D02*
X93882400Y-63343600D01*
X88936760Y-66003240D02*
X88933520Y-66000000D01*
%TO.N,Net-(U1-IM)*%
X93345000Y-67310000D02*
X93345000Y-64630000D01*
X90170000Y-69595000D02*
X91060000Y-69595000D01*
X88725000Y-66500000D02*
X88900000Y-66675000D01*
X88900000Y-66675000D02*
X88900000Y-69215000D01*
X88900000Y-69215000D02*
X89280000Y-69595000D01*
X91060000Y-69595000D02*
X93345000Y-67310000D01*
X89280000Y-69595000D02*
X90170000Y-69595000D01*
X87485000Y-66500000D02*
X88725000Y-66500000D01*
%TO.N,Net-(U1-ICMP)*%
X86360000Y-63055568D02*
X86360000Y-63704534D01*
X90170000Y-60960000D02*
X88455568Y-60960000D01*
X87485000Y-64000000D02*
X86655466Y-64000000D01*
X90170000Y-59130000D02*
X90170000Y-60960000D01*
X86655466Y-64000000D02*
X86360000Y-63704534D01*
X88455568Y-60960000D02*
X86360000Y-63055568D01*
%TO.N,Net-(U1-IBIAS)*%
X88364774Y-62620226D02*
X88900000Y-62620226D01*
X90541000Y-61859000D02*
X90996000Y-61404000D01*
X88900000Y-62620226D02*
X89661226Y-61859000D01*
X90996000Y-58306000D02*
X90170000Y-57480000D01*
X89661226Y-61859000D02*
X90541000Y-61859000D01*
X87485000Y-63500000D02*
X88364774Y-62620226D01*
X90996000Y-61404000D02*
X90996000Y-58306000D01*
%TD*%
%TA.AperFunction,Conductor*%
%TO.N,GND*%
G36*
X83335000Y-66954607D02*
G01*
X83035000Y-66954607D01*
X82694607Y-67847455D01*
X83185000Y-67946000D01*
X83675393Y-67847455D01*
X83335000Y-66954607D01*
G37*
%TD.AperFunction*%
%TD*%
%TA.AperFunction,Conductor*%
%TO.N,GND*%
G36*
X82341653Y-70365000D02*
G01*
X82341653Y-71165000D01*
X82907215Y-71535735D01*
X83186000Y-71120000D01*
X83282545Y-70629607D01*
X82341653Y-70365000D01*
G37*
%TD.AperFunction*%
%TD*%
%TA.AperFunction,Conductor*%
%TO.N,+3V3*%
G36*
X89917565Y-72052433D02*
G01*
X89705433Y-72264565D01*
X90147372Y-73435072D01*
X90932707Y-73279707D01*
X91088072Y-72494372D01*
X89917565Y-72052433D01*
G37*
%TD.AperFunction*%
%TD*%
M02*
